<?xml version="1.0" encoding="UTF-8"?>
<svg width="236px" height="211px" viewBox="0 0 236 211" version="1.1" xmlns="http://www.w3.org/2000/svg" xmlns:xlink="http://www.w3.org/1999/xlink">
    <!-- Generator: Sketch 50 (54983) - http://www.bohemiancoding.com/sketch -->
    <title>Fill 28</title>
    <desc>Created with Sketch.</desc>
    <defs></defs>
    <g id="Page-1" stroke="none" stroke-width="1" fill="none" fill-rule="evenodd">
        <g id="17741272" transform="translate(-303.000000, -147.000000)" fill="#FC655F">
            <path d="M459.043,159.066 C454.938,151.961 447.304,147.552 439.1,147.552 L402.693,147.553 C394.489,147.553 386.854,151.961 382.75,159.067 L306.624,290.923 C302.519,298.025 302.523,306.842 306.632,313.942 L324.907,345.536 C329.015,352.64 336.653,357.047 344.858,357.047 L376.59,357.047 C384.792,357.047 392.428,352.635 396.532,345.532 L406.255,328.69 C408.431,324.925 409.579,320.634 409.579,316.288 L409.579,281.744 C409.579,278.995 406.448,277.419 404.238,279.055 L351.213,316.016 C349.787,317.075 347.762,316.659 346.865,315.128 L340.685,304.562 C339.701,302.881 339.985,300.733 341.375,299.364 L404.843,239.215 C407.866,236.238 409.579,232.147 409.579,227.904 L409.579,201.223 C409.579,195.863 413.412,183.328 418.489,180.466 C419.865,179.688 421.666,179.704 422.84,180.185 C428.199,182.376 432.328,195.661 432.328,201.223 L432.328,227.904 C432.328,232.147 434.041,236.238 437.063,239.215 L495.842,299.364 C497.231,300.733 497.516,302.881 496.531,304.562 L490.354,315.128 C489.454,316.659 487.431,317.075 486.003,316.016 L437.669,279.055 C435.46,277.419 432.328,278.995 432.328,281.744 L432.328,316.282 C432.328,320.63 433.476,324.916 435.651,328.686 L445.375,345.532 C449.479,352.635 457.114,357.042 465.316,357.042 L496.813,357.042 C505.022,357.042 512.671,352.654 516.819,345.568 L535.22,314.106 C539.358,307.03 539.384,298.218 535.284,291.119 L459.043,159.066" id="Fill-28"></path>
        </g>
    </g>
</svg>