<svg xmlns="http://www.w3.org/2000/svg" viewBox="0 0 370.25 295.35"><defs><style>.cls-1{isolation:isolate;}.cls-2{fill:#67e2ef;opacity:0.68;}.cls-19,.cls-2,.cls-31{mix-blend-mode:multiply;}.cls-3{fill:#ff2700;}.cls-4{fill:#008c64;}.cls-5{fill:#076d4d;opacity:0.49;}.cls-6{fill:#046043;}.cls-7{fill:#10c193;}.cls-8{fill:#2c97c6;}.cls-9{fill:#fff;}.cls-10{fill:#21a7d6;}.cls-11{fill:#8ef;}.cls-12{fill:#b72a3e;}.cls-13{fill:#f24959;}.cls-14{fill:#def9f6;}.cls-15{fill:#36aadd;}.cls-16{fill:#cc2f46;}.cls-17{fill:#991931;}.cls-18{fill:#ffc200;}.cls-19,.cls-25,.cls-31{fill:#ff6700;}.cls-19{opacity:0.3;}.cls-20{fill:#0f93b7;}.cls-21{fill:#ebeded;}.cls-22{fill:#cc273f;}.cls-23{fill:#68071c;}.cls-24{fill:#7c0a23;}.cls-26{fill:#bf3904;}.cls-27{fill:#db4a09;}.cls-28{fill:#822302;}.cls-29{fill:#5ac0f9;}.cls-30{fill:#53f9f4;}.cls-31{opacity:0.47;}</style></defs><g class="cls-1"><g id="OBJECTS"><circle class="cls-2" cx="203.66" cy="147.68" r="147.68"/><path class="cls-3" d="M672.5,332.77" transform="translate(-311.75 -113.34)"/><path class="cls-4" d="M630.9,276.06a50.78,50.78,0,0,1-30.32,7.33l1,.4c3.28,1.28,6.48,2.69,9.62,4.2,13.68-6,28.81-3.52,28.81-3.52a49.8,49.8,0,0,1-27.31,4.24c2.22,1.09,4.4,2.22,6.56,3.38l1.53.84c12.9-4,25.9-.68,25.9-.68A47.28,47.28,0,0,1,622,293.61l1.44.82v0l0,0c2.11,1.22,4.17,2.5,6.2,3.81,12-3.77,24.13-.68,24.13-.68a43.39,43.39,0,0,1-23.5,1.1q2.63,1.72,5.16,3.52c.89.64,1.76,1.28,2.63,1.93a36.41,36.41,0,0,1,16.21,2.64,32.32,32.32,0,0,1-15.6-2.19,111.39,111.39,0,0,1,8.66,7.21A33.08,33.08,0,0,1,660,324.2s-9.14-4.46-14.19-13c-1.76-1.56-3.61-3.08-5.52-4.57A15.54,15.54,0,0,1,643,319.37s-4.53-6.05-3-13q-2.45-1.89-5-3.69c-1-.72-2.08-1.44-3.14-2.14a20.21,20.21,0,0,1,3.46,16.59s-5.89-7.85-4-16.94Q628,298,624.6,296a25.19,25.19,0,0,1,3.69,19.8s-7.11-9.49-5-20.59q-2.22-1.29-4.51-2.5c-1.78-.94-3.59-1.86-5.41-2.76a32.27,32.27,0,0,1,8.37,24.18s-9.85-10.89-9-24.47c-3.77-1.84-7.62-3.56-11.58-5.08l-.26-.1a39.28,39.28,0,0,1,12.3,25.63s-12-11-13.32-26l-1-.39-1.13-.44-1.15-.4L592,281.23c-1.53-.57-3.1-1-4.66-1.45l-4.67-1.37.2-1,4.72,1.42c1.57.48,3.16.91,4.7,1.48L597,282l1.16.41c.39.14.76.31,1.14.46l.31.12C613.63,274.55,630.9,276.06,630.9,276.06Z" transform="translate(-311.75 -113.34)"/><path class="cls-4" d="M620.44,257.08c.46.21,13.55,2.65,16.2-2.29l-8.75-.72s10.25,0,11.81-2.83S646.2,239,646.2,239s-8.16,1.32-9.16,1c0,0,7.13-1.42,8.89-6.9s.56-13.24.56-13.24l-5.74,3.28s4.32-3.34,3.28-6.41-5.9-15.25-5.36-16.63-8,2.6-10.45,5.85,1.26,7.85,1.26,7.85-5.17-3-6.43-4.61-5.89,6.32-6.17,6.74,2.13,10.91,3.21,12-6-4.39-6.36-6.14-3.86,6.66-2.82,10.11,4.74,9.86,4.74,9.86-4.84-1.49-6.09-4S605.56,250.34,620.44,257.08Z" transform="translate(-311.75 -113.34)"/><path class="cls-5" d="M609.37,237.78c1.25,2.55,6.1,4,6.1,4s-3.71-6.41-4.75-9.86,2.45-11.85,2.83-10.11,7.44,7.23,6.36,6.13-3.5-11.58-3.22-12,4.9-8.3,6.17-6.73,6.44,4.61,6.44,4.61-3.74-4.6-1.26-7.85c2.16-2.83,8.88-6.22,10.23-6.13l.21.28s-22.75,39.79-17.13,57.21a10.1,10.1,0,0,1-1.09-.23C605.38,250.39,608.13,235.22,609.37,237.78Z" transform="translate(-311.75 -113.34)"/><path class="cls-6" d="M621,257.17h0a.17.17,0,0,0,.1-.2c-1.11-4.86-.76-11.09,1.05-18.5l0-.14.12,0,2.08-.6a101.07,101.07,0,0,0,10.18-3.33.16.16,0,0,0,.09-.21.15.15,0,0,0-.12-.1h-.06a103.25,103.25,0,0,1-10.16,3.32l-1.69.48-.35.11.1-.4a116.49,116.49,0,0,1,5.68-16.32l0-.08.07,0c1.51-.72,3.29-1.48,5.17-2.28l2.34-1a.14.14,0,0,0,.08-.09.17.17,0,0,0,0-.12.14.14,0,0,0-.12-.1s0,0-.07,0l-2.33,1c-1.53.65-3.1,1.32-4.45,1.94l-.52.24.25-.57a179.55,179.55,0,0,1,10.2-20,.16.16,0,0,0,0-.12.17.17,0,0,0-.06-.1.09.09,0,0,0-.06,0,.15.15,0,0,0-.14.07A184.12,184.12,0,0,0,628,220.82c-.54,1.26-1.07,2.55-1.58,3.84l-.21.52-.19-.51c-.93-2.56-3.43-8.93-3.68-9.52a.14.14,0,0,0-.11-.09l-.08,0a.16.16,0,0,0-.07.09.19.19,0,0,0,0,.13c.41.95,3.49,8.87,3.93,10.22l0,.09,0,.09a102.48,102.48,0,0,0-4.32,13.72l-.1.45-.27-.34a59.52,59.52,0,0,1-6.52-10.83.12.12,0,0,0-.11-.08.08.08,0,0,0-.08,0,.17.17,0,0,0-.06.22,58.12,58.12,0,0,0,6.84,11.25l.11.1,0,.16c-1.4,6.56-1.59,12.17-.56,16.68A.18.18,0,0,0,621,257.17Z" transform="translate(-311.75 -113.34)"/><path class="cls-7" d="M613.39,259.93c.7-3.68,1.07-7.48,2.55-10.93s4.4-6.57,8.13-7,7.81,2.79,7.19,6.49c-.25,1.49-1,3.36.18,4.26s2.74-.32,3.41-1.58c1.11-2.06,1.34-4.46,1.74-6.76s1.1-4.7,2.83-6.27,4.81-1.83,6.25,0a11.67,11.67,0,0,0,1.49,2.14c1.14.92,2.91.38,4-.64a33.49,33.49,0,0,0,2.58-3.55c3.22-4,10.4-3.76,13.31.49s.54,11.05-4.38,12.58c-1.53.47-3.19.51-4.62,1.23s-2.52,2.55-1.68,3.91,2.87,1.24,4.32,2c2.4,1.22,2.66,4.85,1.06,7s-4.41,3.07-7.09,3.39-5.4.19-8,.83c-.92.23-2,.71-2.09,1.65-.23,1.49,1.81,2.06,3.18,2.7,3.28,1.52,4,6.28,2.1,9.38s-5.44,4.74-8.95,5.61h0c-5.67,1.39-11.54,1.17-17.32.84-5.59-.33-11.5.25-17-.31-7.75-.79-1-7.21,1-11A58.76,58.76,0,0,0,613.39,259.93Z" transform="translate(-311.75 -113.34)"/><path class="cls-6" d="M639.75,275c.24,0,.15-.4-.09-.36a119.92,119.92,0,0,0-33.87,9.89,346.86,346.86,0,0,0,30.86-23.83h0a65.7,65.7,0,0,1,14.08-2c.24,0,.25-.38,0-.37a66.8,66.8,0,0,0-13.5,1.86c2.13-1.85,4.25-3.73,6.33-5.64q5.8-5.31,11.35-10.87c.16-.17-.1-.43-.26-.26q-5.8,5.81-11.87,11.33c.6-2.66,1.21-5.32,1.81-8,0-.23-.31-.33-.36-.1-.64,2.82-1.27,5.63-1.91,8.45a.13.13,0,0,0,0,.06q-10.74,9.75-22.28,18.57a113.28,113.28,0,0,0,6.11-20.54c.05-.24-.31-.34-.35-.1a113.41,113.41,0,0,1-6.33,21.08q-3.47,2.64-7,5.19-6.32,4.56-12.81,8.82c-.2.13,0,.45.18.32q2-1.32,4-2.69a.12.12,0,0,0,.1,0A118.69,118.69,0,0,1,639.75,275Z" transform="translate(-311.75 -113.34)"/><path class="cls-6" d="M359.9,309.54a46.74,46.74,0,0,0,28.42,3.6l-.84.46c-2.86,1.5-5.64,3.12-8.35,4.81-13.1-4.1-26.65-.26-26.65-.26a45.75,45.75,0,0,0,25.35,1.08c-1.91,1.22-3.79,2.48-5.64,3.76l-1.3.91c-12.19-2.31-23.71,2-23.71,2a43.4,43.4,0,0,0,22.67-1.29c-.42.3-.83.59-1.23.89h0l0,0q-2.7,2-5.26,4.12c-11.34-2.21-22.1,1.84-22.1,1.84a39.75,39.75,0,0,0,21.56-1.4q-2.22,1.85-4.35,3.74c-.74.68-1.48,1.35-2.21,2A33.44,33.44,0,0,0,341.7,340a29.79,29.79,0,0,0,14-3.59,100.5,100.5,0,0,0-7.17,7.47,30.38,30.38,0,0,0-10.29,12.6s7.89-5,11.63-13.32c1.44-1.61,3-3.18,4.56-4.73a14.32,14.32,0,0,0-1.12,11.91s3.52-6,1.45-12.22c1.36-1.31,2.75-2.61,4.18-3.88.87-.76,1.76-1.52,2.65-2.27a18.52,18.52,0,0,0-1.46,15.49s4.57-7.76,1.89-15.86c1.83-1.53,3.72-3,5.65-4.49a23.15,23.15,0,0,0-1.35,18.45s5.52-9.39,2.49-19.31c1.27-.93,2.55-1.84,3.86-2.74,1.53-1,3.09-2.07,4.66-3.07a29.58,29.58,0,0,0-5.17,22.92s7.88-10.94,5.66-23.24c3.26-2.07,6.6-4,10.05-5.82l.24-.13a36.12,36.12,0,0,0-8.62,24.65s9.83-11.31,9.51-25.12l.85-.45c.33-.18.65-.36,1-.52l1-.49,4-1.92c1.34-.67,2.73-1.21,4.1-1.8l4.13-1.73-.28-.85-4.17,1.78c-1.38.6-2.79,1.15-4.13,1.84l-4.08,2-1,.49c-.34.17-.66.36-1,.53l-.26.15C375.51,306.4,359.9,309.54,359.9,309.54Z" transform="translate(-311.75 -113.34)"/><path class="cls-4" d="M372.61,249.84a48.65,48.65,0,0,0,.92,29.85l-.61-.8c-2-2.69-4.13-5.29-6.32-7.81,2.1-14.16-4.06-27.48-4.06-27.48a47.72,47.72,0,0,0,3,26.28q-2.35-2.65-4.79-5.2l-1.15-1.19c.4-12.92-5.95-24.08-5.95-24.08a45.2,45.2,0,0,0,5,23.13l-1.12-1.12h0l-.06,0q-2.49-2.44-5.09-4.74c.44-12-5.49-22.45-5.49-22.45a41.5,41.5,0,0,0,4.95,22q-2.26-2-4.56-3.87c-.81-.66-1.63-1.31-2.45-1.94a34.76,34.76,0,0,0-6.55-14.29,31,31,0,0,0,6,13.84c-2.9-2.22-5.84-4.3-8.85-6.16a31.73,31.73,0,0,0-14.65-8.55s6.43,7.31,15.6,9.81q2.84,1.84,5.61,3.93a14.86,14.86,0,0,0-12.44.78s6.74,2.65,12.81-.5c1.58,1.19,3.14,2.41,4.68,3.68.93.77,1.85,1.56,2.77,2.35a19.35,19.35,0,0,0-16.19,1s8.74,3.44,16.64-.63c1.88,1.63,3.73,3.33,5.54,5.08a24.11,24.11,0,0,0-19.21,1.62s10.56,4.15,20.28-.58q1.74,1.72,3.44,3.53,2,2.12,3.93,4.29A30.88,30.88,0,0,0,339.82,268s12.55,6.33,24.85,2c2.65,3,5.22,6.14,7.62,9.4l.17.22a37.62,37.62,0,0,0-26.78-4.86s13.25,8.28,27.41,5.7l.61.8c.23.31.47.62.69.93l.66,1,2.64,3.85c.91,1.26,1.69,2.61,2.52,3.93l2.45,4,.83-.42-2.51-4c-.84-1.33-1.64-2.69-2.56-4l-2.69-3.88-.68-1c-.23-.32-.47-.62-.71-.94l-.19-.25C378.38,265.4,372.61,249.84,372.61,249.84Z" transform="translate(-311.75 -113.34)"/><path class="cls-7" d="M367.65,318.08c-3.89.91-7.75,2.19-11.75,2.23s-8.3-1.46-10.36-4.89-.65-8.82,3.22-9.81c1.56-.4,3.73-.44,4.08-2s-1.5-2.53-3-2.65c-2.48-.18-4.91.63-7.33,1.22s-5.06,1-7.33-.05-3.86-3.9-2.69-6.09a12.4,12.4,0,0,0,1.44-2.37c.4-1.51-.88-3-2.33-3.6s-3.07-.58-4.58-1c-5.31-1.4-8.15-8.51-5.25-13.18s10.53-5.3,14.14-1.16c1.12,1.28,1.88,2.89,3.19,4s3.58,1.36,4.54,0,0-3.34.06-5.07c.15-2.86,3.58-4.69,6.38-4.05s4.89,3,6.36,5.44,2.51,5.19,4.27,7.46c.61.8,1.53,1.6,2.5,1.33,1.56-.42,1.23-2.66,1.26-4.27.07-3.85,4.42-6.57,8.24-6.08s7,3.25,9.33,6.3h0c3.8,4.92,6.12,10.74,8.29,16.51,2.09,5.6,5.2,11.11,7,16.72,2.57,7.9-6.62,4-11.14,3.71A62.26,62.26,0,0,0,367.65,318.08Z" transform="translate(-311.75 -113.34)"/><path class="cls-8" d="M371,285.89c-.14-.22-.45,0-.32.24a128.16,128.16,0,0,0,24.26,28.75,370,370,0,0,0-36.54-19.8v0a70.16,70.16,0,0,1-8-12.86c-.11-.23-.48-.08-.37.15a71,71,0,0,0,7.64,12.36q-4.09-1.92-8.23-3.74-7.67-3.36-15.49-6.37a.2.2,0,0,0-.14.37q8.16,3.15,16.16,6.68l-8.56,1.68c-.25.05-.19.44.06.39l9.06-1.78.06,0q14.14,6.27,27.72,13.7a121.09,121.09,0,0,0-22.67,2.91c-.24.05-.19.45.06.39A120.87,120.87,0,0,1,378.9,306q4.07,2.25,8.08,4.58,7.15,4.19,14.11,8.68c.22.14.46-.18.24-.31-1.44-.94-2.9-1.86-4.35-2.77a.15.15,0,0,0-.07-.09A127,127,0,0,1,371,285.89Z" transform="translate(-311.75 -113.34)"/><path class="cls-4" d="M393.46,297.05c.54,0,14.07-4.48,14-10.47l-8.57,3.81s9.6-5.29,9.62-8.72-.2-14.85-.2-14.85-7,5.43-8.07,5.68c0,0,6-5,4.8-11.05s-6.28-12.71-6.28-12.71l-3.7,6s2.34-5.34-.21-7.69-13.37-11.27-13.58-12.85-6.14,6.54-6.8,10.86,5.22,6.72,5.22,6.72-6.41-.2-8.41-1-2.28,9-2.32,9.49,7.61,9.14,9.18,9.61-7.86-1-9.11-2.48-.21,8.23,2.54,10.93,9.51,6.81,9.51,6.81-5.31,1.1-7.79-.66S376.05,298.37,393.46,297.05Z" transform="translate(-311.75 -113.34)"/><path class="cls-5" d="M373.16,284.62c2.49,1.76,7.8.66,7.8.66s-6.77-4.1-9.52-6.81-3.79-12.38-2.54-10.93,10.69,3,9.12,2.48-9.24-9.07-9.19-9.61.33-10.31,2.33-9.49,8.4,1,8.4,1-5.87-2.4-5.21-6.72c.57-3.77,5.14-10.4,6.45-11l.34.15s-.9,49,13.32,62.48a11.2,11.2,0,0,1-1.14.35C375.9,298.51,370.68,282.87,373.16,284.62Z" transform="translate(-311.75 -113.34)"/><path class="cls-6" d="M394,296.84l0,0a.18.18,0,0,0,0-.24c-3.55-4-6.41-10-8.52-17.91l0-.14.1-.1c.53-.54,1.08-1.08,1.63-1.63a107.28,107.28,0,0,0,7.85-8.36.18.18,0,0,0,0-.24.15.15,0,0,0-.17,0,.07.07,0,0,0-.05,0,108.46,108.46,0,0,1-7.83,8.33l-1.33,1.32-.28.28-.11-.43a124.35,124.35,0,0,1-3.05-18.22v-.1l.05-.07c1-1.45,2.32-3.08,3.68-4.8.56-.7,1.12-1.42,1.68-2.13a.14.14,0,0,0,0-.12.17.17,0,0,0-.05-.12.16.16,0,0,0-.17,0l-.05,0-1.68,2.14c-1.1,1.39-2.24,2.83-3.18,4.1l-.36.49-.06-.65a193.78,193.78,0,0,1-.69-24,.2.2,0,0,0,0-.13.17.17,0,0,0-.11-.06.08.08,0,0,0-.07,0,.13.13,0,0,0-.09.13,194.27,194.27,0,0,0,.75,25c.14,1.45.3,2.94.49,4.42l.07.59-.44-.39c-2.19-1.92-7.81-6.61-8.34-7a.17.17,0,0,0-.15,0,.13.13,0,0,0-.07.06.16.16,0,0,0,0,.12.14.14,0,0,0,.07.11c.87.69,7.83,6.54,8.94,7.58l.08.07v.1a107,107,0,0,0,3,15.09l.13.47-.42-.18a63.21,63.21,0,0,1-11.69-6.81.12.12,0,0,0-.14,0,.11.11,0,0,0-.07.06.19.19,0,0,0,.06.24,62.59,62.59,0,0,0,12.2,7l.15,0,.07.16c2.05,6.88,4.76,12.24,8,15.94A.18.18,0,0,0,394,296.84Z" transform="translate(-311.75 -113.34)"/><polygon class="cls-9" points="257.14 232.11 239.91 239.57 222.68 232.11 205.45 239.57 188.22 232.11 170.98 239.57 148.98 230.04 148.98 130.02 170.98 139.55 188.22 132.09 205.45 139.55 222.68 132.09 239.91 139.55 257.14 132.09 274.38 139.55 296.38 130.02 296.38 230.04 274.38 239.57 257.14 232.11"/><polygon class="cls-10" points="188.22 137.12 170.98 144.59 170.98 234.54 188.22 227.08 188.22 137.12"/><polygon class="cls-11" points="153.75 137.12 153.75 227.08 170.98 234.54 170.98 144.59 153.75 137.12"/><polygon class="cls-10" points="222.68 137.12 205.45 144.59 205.45 234.54 222.68 227.08 222.68 137.12"/><polygon class="cls-11" points="188.22 137.12 188.22 227.08 205.45 234.54 205.45 144.59 188.22 137.12"/><polygon class="cls-10" points="257.14 137.12 239.91 144.59 239.91 234.54 257.14 227.08 257.14 137.12"/><polygon class="cls-11" points="222.68 137.12 222.68 227.08 239.91 234.54 239.91 144.59 222.68 137.12"/><polygon class="cls-10" points="291.61 137.12 274.38 144.59 274.38 234.54 291.61 227.08 291.61 137.12"/><polygon class="cls-11" points="257.14 137.12 257.14 227.08 274.38 234.54 274.38 144.59 257.14 137.12"/><path class="cls-7" d="M544.23,258.5l-3.54-3.59a.85.85,0,0,1-.09-1.1l.37-.52-6.54-2.83-11,4.75-1.07,8.4a1,1,0,0,0,.07.44l1.54,3.63,1,2.43a1,1,0,0,0,.14.22l2.87,3.38a.85.85,0,0,0,1.42-.18l2.86-5.93a.86.86,0,0,1,.32-.36l1.45-.89,3.72-2.29,1.66-1,0,0,4.59-3.21A.85.85,0,0,0,544.23,258.5Z" transform="translate(-311.75 -113.34)"/><path class="cls-7" d="M521.63,322.54c-5.49-.29.29-6.28-5.63-5.64s-7.14-3.64-10.71-4.21a8.23,8.23,0,0,0-6.19,1.7l-6.44-2.91c-9.49-4.28-8.49-12.49-8.81-12.64s2.6-.07,5.6-.07,5.28,3.43,7.92,3.86.43-1.29.28-7.57,12.71-10,9.85-14.34,5.78-4.57,8.64-5.93-3.64-9.06-10.28-7.2-3.78-4.29-7.21-6.78-3.14,9.92-3.14,9.92-9.27-2.79-9.13-7.07c.07-2.27,3.26-6.53,6.22-10l-9.86,4.27-17.24-7.46v43.45c1.83,4.67,2.66,8.75,4.61,10.65,2.78,2.71,4.43-3.75,4.43-3.75s1.56,8.46,5.91,11,15.92,6.29,15.92,6.29-3.5,2.85-3.57,4.06,2.43,5,3.93,8.71,5.06,3.28,7.78,5.5c1.15.94.66,3.38-.28,5.87l13,5.62.34-.15,2.67-6.63s8.92-1.29,6.49-7.14,7-4.07,5.64-6.28S527.13,322.83,521.63,322.54Z" transform="translate(-311.75 -113.34)"/><path class="cls-7" d="M586.13,257.92l-3.56-1.54c-2.82,2.51-4.56,4.66-3.7,5.35,2.64,2.15-7.85,9.21-11.2,11.92s-11.49-1.78-11.42,5.14-10.42,9.78-5.5,10.85,9.35-3.57,10.92-5.35,3.21,1.35,7.42,4.49,10.85-8.42,15.63-4.85-11.2,5.07-3.56,6.64c6.41,1.32,3.38,4.6,2.24,5.62l-8,1.63-1.11-.32-.06,0h-.07L558,292.78a4.37,4.37,0,0,0-1.18-.17,4.25,4.25,0,0,0-2.89,1.14l-3,2.83-4.43,4.15a7.57,7.57,0,0,0-2.16,7.43l2,7.58a6.2,6.2,0,0,0,6.33,4.64l5.3-.29,4.59-.25,3.27,10.6,2.06,6.48,1.11,3.5,10.2,4.42,2.29-3.3,1.48-2.13,4.34-6.25,6.22-12.64a4.34,4.34,0,0,0-2.55-6l-2.73-.88a4,4,0,0,1-2.76-3.55l-.36-5.22a1.58,1.58,0,0,1,.6-1.36c2.49,1.77,6.27,4.7,8.28,4.5,2.21-.21.5-8.14,4.5-7.85,1.05.08,2.85,1.22,4.93,2.87V250.46Z" transform="translate(-311.75 -113.34)"/><path class="cls-4" d="M522.4,263.61a1,1,0,0,0,.07.44l1.54,3.63,1,2.43a1,1,0,0,0,.14.22l2.87,3.38a.85.85,0,0,0,1.42-.18l2.86-5.93a.86.86,0,0,1,.32-.36l1.45-.89.33-.2V250.46l-11,4.75Z" transform="translate(-311.75 -113.34)"/><path class="cls-4" d="M498.65,260.81c-3.42-2.5-3.14,9.92-3.14,9.92s-9.27-2.79-9.13-7.07c.07-2.27,3.26-6.53,6.22-10l-9.86,4.27V313c5.17,2.4,13.63,5.12,13.63,5.12s-3.5,2.85-3.57,4.06,2.43,5,3.93,8.71a5.74,5.74,0,0,0,3.24,3.22V313.79a6.3,6.3,0,0,0-.87.6l-6.44-2.91c-9.49-4.28-8.49-12.49-8.81-12.64s2.6-.07,5.6-.07,5.28,3.43,7.92,3.86.43-1.29.28-7.57a6.85,6.85,0,0,1,2.32-4.75v-27.9A4.27,4.27,0,0,0,498.65,260.81Z" transform="translate(-311.75 -113.34)"/><path class="cls-4" d="M521.63,322.54c-5-.26-.57-5.35-4.43-5.67v31l.34-.15,2.67-6.63s8.92-1.29,6.49-7.14,7-4.07,5.64-6.28S527.13,322.83,521.63,322.54Z" transform="translate(-311.75 -113.34)"/><path class="cls-4" d="M556.25,278.79c0,3.47-2.58,5.92-4.59,7.63v3.35c4.56.37,8.54-3.81,10-5.48s3.17,1.25,7.23,4.34V272.7c-.47.35-.89.68-1.23.95C564.31,276.36,556.18,271.87,556.25,278.79Z" transform="translate(-311.75 -113.34)"/><path class="cls-4" d="M556.82,292.61a4.25,4.25,0,0,0-2.89,1.14l-2.27,2.11v24.5a7.22,7.22,0,0,0,.93,0l5.3-.29,4.59-.25,3.27,10.6,2.06,6.48,1.09,3.43V295.94L558,292.78A4.37,4.37,0,0,0,556.82,292.61Z" transform="translate(-311.75 -113.34)"/><path class="cls-4" d="M586.13,257.92v45.9c2.48,1.78,5.91,4.34,7.8,4.16,2.21-.21.5-8.14,4.5-7.85,1.05.08,2.85,1.22,4.93,2.87V250.46Z" transform="translate(-311.75 -113.34)"/><path class="cls-4" d="M590.9,314.49l-2.73-.88a4,4,0,0,1-2-1.53v22.66l1.1-1.58,6.22-12.64A4.34,4.34,0,0,0,590.9,314.49Z" transform="translate(-311.75 -113.34)"/><circle class="cls-12" cx="602.49" cy="259.31" r="26.23" transform="matrix(0.16, -0.99, 0.99, 0.16, -61, 699.62)"/><circle class="cls-13" cx="597.66" cy="259.31" r="26.23" transform="translate(-102.42 669.09) rotate(-76.87)"/><circle class="cls-12" cx="597.66" cy="259.31" r="22.66" transform="translate(-102.6 668.95) rotate(-76.85)"/><circle class="cls-9" cx="597.66" cy="259.31" r="19.86" transform="translate(-109.45 663.79) rotate(-76.09)"/><path class="cls-14" d="M597.66,239.45c-.49,0-1,0-1.46.06a19.85,19.85,0,0,1,0,39.6c.48,0,1,.06,1.46.06a19.86,19.86,0,0,0,0-39.72Z" transform="translate(-311.75 -113.34)"/><polygon class="cls-15" points="289.76 150.47 296.32 135.41 281.26 141.97 289.76 150.47"/><polygon class="cls-8" points="289.76 150.46 285.52 146.22 296.32 135.41 289.76 150.46"/><polygon class="cls-13" points="281.26 141.97 274.71 157.02 289.76 150.47 281.26 141.97"/><polygon class="cls-16" points="289.76 150.46 274.71 157.02 285.52 146.22 289.76 150.46"/><path class="cls-9" d="M599.49,259.59a2.29,2.29,0,1,0-2.29,2.29A2.28,2.28,0,0,0,599.49,259.59Z" transform="translate(-311.75 -113.34)"/><path class="cls-17" d="M430.39,215.31H414.68l2,3.54h28.72v27.53c1.19.77,2.37,1.51,3.54,2.21V215.31Z" transform="translate(-311.75 -113.34)"/><path class="cls-9" d="M397.08,192.66c8.84,0,9.39-13.21.57-13.8-.31,0-.63,0-.95,0a14,14,0,0,0-3.8.52,15.33,15.33,0,0,0-20.77-10.88,15.33,15.33,0,0,0-30.07-.58,15.32,15.32,0,0,0-18.67,10h-.54a16.48,16.48,0,0,0-7.26,1.67c-6.55,3.2-4.19,13.09,3.1,13.09Z" transform="translate(-311.75 -113.34)"/><path class="cls-9" d="M682,134.46v21.82H632.3c-6.31,0-8.35-8.56-2.69-11.32a14.24,14.24,0,0,1,6.28-1.45h.47a13.26,13.26,0,0,1,16.14-8.67,13.27,13.27,0,0,1,26,.5A13,13,0,0,1,682,134.46Z" transform="translate(-311.75 -113.34)"/><circle class="cls-18" cx="438.34" cy="138.34" r="18.01" transform="translate(-287.91 223.69) rotate(-43.13)"/><path class="cls-19" d="M438.34,120.33q-.51,0-1,0a16.26,16.26,0,0,1-6.76,31,16,16,0,0,1-5.6-1,18,18,0,1,0,13.38-30.07Z" transform="translate(-311.75 -113.34)"/><path class="cls-9" d="M513.11,197.19H527a0,0,0,0,1,0,0v11.3a0,0,0,0,1,0,0H513.11a1.73,1.73,0,0,1-1.73-1.73v-7.84A1.73,1.73,0,0,1,513.11,197.19Z" transform="translate(-260.9 -212.75) rotate(11.5)"/><path class="cls-10" d="M514.53,196.14a1.76,1.76,0,0,0-2.17,1.1l-1.64,8.09a1.76,1.76,0,0,0,1.56,1.87Z" transform="translate(-311.75 -113.34)"/><polygon class="cls-20" points="216.19 85.52 220.24 88.86 218.97 95.11 213.94 96.6 216.19 85.52"/><path class="cls-9" d="M482.88,164.28l42.88,9,42,9.24a9.74,9.74,0,0,0,8.34-2l5.87-4.88a19.16,19.16,0,0,1,16.08-4l5,1L588.9,192.93A19.61,19.61,0,0,1,569.05,201l-48.31-9.4-46.82-9.69c-1.35-.21-4.07-1.51-7.46-3.55a22.18,22.18,0,0,1-3.65-2.71c-2.52-2.3-2.79-3.54-2.56-3.88C461.52,169.85,475,162.67,482.88,164.28Z" transform="translate(-311.75 -113.34)"/><path class="cls-21" d="M460.2,172.17c.08.59.68,1.72,2.61,3.49a22.18,22.18,0,0,0,3.65,2.71c3.39,2,6.11,3.34,7.46,3.55l46.82,9.69,48.31,9.4a19.61,19.61,0,0,0,15.47-3.55Z" transform="translate(-311.75 -113.34)"/><path class="cls-10" d="M558.3,184.52l1.54.31c.37.08.56.63.44,1.24l-.47,2.29c-.12.61-.52,1-.88,1l-1.55-.31c-.36-.07-.56-.63-.44-1.24l.47-2.28C557.53,184.88,557.93,184.44,558.3,184.52Z" transform="translate(-311.75 -113.34)"/><path class="cls-10" d="M552,183.24l1.55.31c.36.08.56.63.43,1.24l-.46,2.29c-.12.6-.52,1-.89,1l-1.54-.31c-.37-.08-.57-.63-.44-1.24l.46-2.29C551.23,183.59,551.62,183.16,552,183.24Z" transform="translate(-311.75 -113.34)"/><path class="cls-10" d="M545.68,182l1.55.32c.37.07.56.63.44,1.23l-.47,2.29c-.12.61-.52,1-.88,1l-1.55-.32c-.37-.07-.56-.62-.44-1.23l.47-2.29C544.92,182.31,545.32,181.88,545.68,182Z" transform="translate(-311.75 -113.34)"/><path class="cls-10" d="M539.38,180.67l1.54.32c.37.07.57.62.44,1.23l-.46,2.29c-.13.61-.52,1-.89,1l-1.55-.32c-.36-.07-.56-.63-.43-1.23l.46-2.29C538.61,181,539,180.6,539.38,180.67Z" transform="translate(-311.75 -113.34)"/><path class="cls-10" d="M533.07,179.39l1.55.31c.36.08.56.63.44,1.24l-.47,2.29c-.12.61-.52,1-.89,1l-1.54-.31c-.37-.07-.56-.63-.44-1.24l.46-2.28C532.31,179.75,532.71,179.31,533.07,179.39Z" transform="translate(-311.75 -113.34)"/><path class="cls-10" d="M526.77,178.11l1.54.31c.37.07.57.63.44,1.24l-.46,2.28c-.13.61-.52,1.05-.89,1l-1.55-.31c-.36-.08-.56-.63-.44-1.24l.47-2.29C526,178.46,526.4,178,526.77,178.11Z" transform="translate(-311.75 -113.34)"/><path class="cls-10" d="M520.46,176.82l1.55.32c.36.07.56.63.44,1.23l-.47,2.29c-.12.61-.52,1-.89,1l-1.54-.32c-.37-.07-.57-.62-.44-1.23l.46-2.29C519.7,177.18,520.09,176.75,520.46,176.82Z" transform="translate(-311.75 -113.34)"/><path class="cls-10" d="M514.16,175.54l1.54.31c.37.08.56.63.44,1.24l-.47,2.29c-.12.61-.52,1-.88,1l-1.55-.32c-.36-.07-.56-.63-.44-1.23l.47-2.29C513.39,175.9,513.79,175.47,514.16,175.54Z" transform="translate(-311.75 -113.34)"/><path class="cls-10" d="M507.85,174.26l1.55.31c.36.08.56.63.43,1.24l-.46,2.29c-.12.61-.52,1-.89,1l-1.54-.31c-.37-.08-.57-.63-.44-1.24l.46-2.29C507.09,174.62,507.48,174.18,507.85,174.26Z" transform="translate(-311.75 -113.34)"/><path class="cls-10" d="M501.54,173l1.55.31c.37.07.56.63.44,1.24l-.47,2.28c-.12.61-.52,1.05-.88,1l-1.55-.31c-.37-.08-.56-.63-.44-1.24l.47-2.29C500.78,173.33,501.18,172.9,501.54,173Z" transform="translate(-311.75 -113.34)"/><path class="cls-10" d="M495.24,171.69l1.54.32c.37.07.57.63.44,1.23l-.46,2.29c-.13.61-.52,1-.89,1l-1.55-.32c-.36-.07-.56-.62-.43-1.23l.46-2.29C494.47,172.05,494.87,171.62,495.24,171.69Z" transform="translate(-311.75 -113.34)"/><rect class="cls-10" x="487.78" y="170.52" width="2.93" height="4.58" rx="0.87" transform="translate(622.49 326.33) rotate(-168.5)"/><path class="cls-10" d="M582.79,184.25l18.94,3.85-.74,1.19a3.32,3.32,0,0,1-3.45,1.48l-18.06-3.68,1.23-2A2,2,0,0,1,582.79,184.25Z" transform="translate(-311.75 -113.34)"/><path class="cls-10" d="M463.51,169.39a48.42,48.42,0,0,1,6.63-3.11l12.4,2.53s-3.57,3.52-5.47,3.3C475.87,172,468.62,170.47,463.51,169.39Z" transform="translate(-311.75 -113.34)"/><path class="cls-10" d="M525.16,187.05l-33.72-6.85L564,227.33l9.45,1.92L534.62,192A19.27,19.27,0,0,0,525.16,187.05Z" transform="translate(-311.75 -113.34)"/><polygon class="cls-20" points="179.69 66.86 252.24 113.99 258.48 115.26 185.92 68.13 179.69 66.86"/><polygon class="cls-20" points="252.24 113.99 260.3 106.91 263.4 107.54 261.69 115.91 252.24 113.99"/><polygon class="cls-22" points="88.69 101.98 88.69 158.41 92.22 158.41 92.22 105.51 133.63 105.51 133.63 158.41 137.16 158.41 137.16 101.98 88.69 101.98"/><rect class="cls-22" x="447.52" y="271.75" width="34.84" height="120.9" rx="4.78" transform="translate(618.12 551.06) rotate(180)"/><path class="cls-17" d="M468.94,271.75H465.7c2.65,0,6,2.14,6,4.78V387.86c0,2.65-3.35,4.79-6,4.79h3.24a4.78,4.78,0,0,0,4.78-4.79V276.53A4.78,4.78,0,0,0,468.94,271.75Z" transform="translate(-311.75 -113.34)"/><rect class="cls-13" x="66.7" y="158.41" width="82.41" height="120.9" rx="4.78"/><path class="cls-17" d="M448.63,387.78h-57a1.46,1.46,0,0,0-1.46,1.46v3.41h59.9v-3.41A1.46,1.46,0,0,0,448.63,387.78Z" transform="translate(-311.75 -113.34)"/><path class="cls-17" d="M401,392.62H387.53v4.43a6.73,6.73,0,0,0,6.73,6.73h0a6.73,6.73,0,0,0,6.74-6.73Z" transform="translate(-311.75 -113.34)"/><path class="cls-23" d="M418.68,392.62H405.2v4.43a6.73,6.73,0,0,0,6.74,6.73h0a6.73,6.73,0,0,0,6.74-6.73Z" transform="translate(-311.75 -113.34)"/><path class="cls-23" d="M145.64,279.29h13.48a0,0,0,0,1,0,0v4.42a6.74,6.74,0,0,1-6.74,6.74h0a6.74,6.74,0,0,1-6.74-6.74v-4.42A0,0,0,0,1,145.64,279.29Z"/><rect class="cls-24" x="75.77" y="279.29" width="13.48" height="2.57"/><path class="cls-17" d="M455.52,392.62H442v4.43a6.73,6.73,0,0,0,6.74,6.73h0a6.73,6.73,0,0,0,6.74-6.73Z" transform="translate(-311.75 -113.34)"/><rect class="cls-24" x="130.29" y="279.29" width="13.48" height="2.57"/><path class="cls-17" d="M395.48,284.14h0a3.21,3.21,0,0,0-3.21,3.21v87a3.2,3.2,0,0,0,3.21,3.21h0a3.21,3.21,0,0,0,3.21-3.21v-87A3.21,3.21,0,0,0,395.48,284.14Z" transform="translate(-311.75 -113.34)"/><path class="cls-17" d="M412.12,284.14h0a3.21,3.21,0,0,0-3.21,3.21v87a3.21,3.21,0,0,0,3.21,3.21h0a3.21,3.21,0,0,0,3.21-3.21v-87A3.21,3.21,0,0,0,412.12,284.14Z" transform="translate(-311.75 -113.34)"/><path class="cls-17" d="M428.76,284.14h0a3.21,3.21,0,0,0-3.21,3.21v87a3.21,3.21,0,0,0,3.21,3.21h0a3.2,3.2,0,0,0,3.21-3.21v-87A3.21,3.21,0,0,0,428.76,284.14Z" transform="translate(-311.75 -113.34)"/><path class="cls-17" d="M445.41,284.14h0a3.21,3.21,0,0,0-3.21,3.21v87a3.21,3.21,0,0,0,3.21,3.21h0a3.21,3.21,0,0,0,3.21-3.21v-87A3.21,3.21,0,0,0,445.41,284.14Z" transform="translate(-311.75 -113.34)"/><path class="cls-22" d="M396.72,377.33a3.07,3.07,0,0,1-1.25.25,3.2,3.2,0,0,1-3.2-3.21v-87a3.21,3.21,0,0,1,3.2-3.21,3.24,3.24,0,0,1,1.25.25,3.22,3.22,0,0,0-2,3v87A3.21,3.21,0,0,0,396.72,377.33Z" transform="translate(-311.75 -113.34)"/><path class="cls-22" d="M413.37,377.33a3.1,3.1,0,0,1-1.25.25,3.21,3.21,0,0,1-3.21-3.21v-87a3.21,3.21,0,0,1,3.21-3.21,3.28,3.28,0,0,1,1.25.25,3.21,3.21,0,0,0-2,3v87A3.21,3.21,0,0,0,413.37,377.33Z" transform="translate(-311.75 -113.34)"/><path class="cls-22" d="M430,377.33a3.21,3.21,0,0,1-4.45-3v-87a3.21,3.21,0,0,1,4.45-3,3.22,3.22,0,0,0-2,3v87A3.21,3.21,0,0,0,430,377.33Z" transform="translate(-311.75 -113.34)"/><path class="cls-22" d="M446.65,377.33a3,3,0,0,1-1.24.25,3.21,3.21,0,0,1-3.21-3.21v-87a3.21,3.21,0,0,1,4.45-3,3.21,3.21,0,0,0-1.95,3v87A3.2,3.2,0,0,0,446.65,377.33Z" transform="translate(-311.75 -113.34)"/><path class="cls-18" d="M476.48,252.5c3.92-4.58-7.56-20.81-25.62-36.25S415,192,411.05,196.6s5.78,22.89,23.85,38.33S472.56,257.09,476.48,252.5Z" transform="translate(-311.75 -113.34)"/><path class="cls-19" d="M469.73,235.52c3,5,4,8.83,2.38,10.72-3.92,4.58-23.52-2.14-41.58-17.58a105.45,105.45,0,0,1-15-15.71,99.31,99.31,0,0,0,19.4,22c18.07,15.43,37.66,22.16,41.58,17.57C478.72,249.88,475.92,243.44,469.73,235.52Z" transform="translate(-311.75 -113.34)"/><path class="cls-18" d="M469,237.62c-9.07,10.6-52.1-26.17-43-36.78s27.63-12.83,39.52-2.67S478,227,469,237.62Z" transform="translate(-311.75 -113.34)"/><path class="cls-25" d="M431.89,195.89a22.5,22.5,0,0,0-6,5c-9.06,10.61,34,47.38,43,36.78a23,23,0,0,0,4-6.67C461,233.08,431.63,208,431.89,195.89Z" transform="translate(-311.75 -113.34)"/><path class="cls-25" d="M469,237.62l-.15.16-.07.08-.15.15-.2.17-.21.17a1,1,0,0,1-.17.12.1.1,0,0,1-.05,0l-.21.14q-.35.19-.72.36l-.24.09a4.84,4.84,0,0,1-.54.17l-.27.07-.22,0h-.06l-.28.05h0l-.28,0h-.07l-.24,0h-.3c-.31,0-.63,0-1,0l-.32,0-.28,0a20,20,0,0,1-4.39-1.06l-.2-.07-.65-.25-.34-.13-.27-.11-.46-.2-1.09-.48-.4-.19-.5-.25-.65-.33c-.29-.14-.57-.29-.85-.44l-.43-.24-.43-.24-.43-.24c-.58-.33-1.15-.68-1.74-1l-.43-.27c-.59-.37-1.17-.75-1.75-1.15l-.88-.6-.44-.31-.44-.31a28.44,28.44,0,0,0,11.11-5.82c6,3.71,11.74,5.93,15.62,5.23a22.57,22.57,0,0,1-2.32,4.5c-.07.09-.13.19-.19.28l-.23.33-.21.29-.13.17c-.06.09-.13.17-.2.26l-.28.36Z" transform="translate(-311.75 -113.34)"/><path class="cls-19" d="M467.09,199.71a28.61,28.61,0,0,1-20.9,31.83c9.34,6.7,19,10.49,22.77,6.08C477.58,227.53,477.37,210.12,467.09,199.71Z" transform="translate(-311.75 -113.34)"/><polygon class="cls-26" points="186.24 198.09 186.24 215.56 189.68 215.56 189.68 201.52 225.95 201.52 225.95 215.56 229.39 215.56 229.39 198.09 186.24 198.09"/><path class="cls-25" d="M583.93,335.26v63.29a6.33,6.33,0,0,1-6.32,6.33H563.49a6.33,6.33,0,0,0,6.33-6.33V335.26a6.32,6.32,0,0,0-6.33-6.32h14.12A6.31,6.31,0,0,1,583.93,335.26Z" transform="translate(-311.75 -113.34)"/><rect class="cls-18" x="156.77" y="215.6" width="101.3" height="75.94" rx="6.32"/><path class="cls-18" d="M569.82,335.26v63.29a6.33,6.33,0,0,1-6.33,6.33H474.84a6.32,6.32,0,0,1-6.31-6.33V335.26a6.32,6.32,0,0,1,6.31-6.33h88.65A6.33,6.33,0,0,1,569.82,335.26Z" transform="translate(-311.75 -113.34)"/><path class="cls-25" d="M488.88,331.65A18.87,18.87,0,0,1,470,350.51a14.39,14.39,0,0,1-1.48-.07V335.26a6.32,6.32,0,0,1,6.32-6.33h13.83A18.72,18.72,0,0,1,488.88,331.65Z" transform="translate(-311.75 -113.34)"/><path class="cls-25" d="M488.88,404q0,.46,0,.9h-14a6.31,6.31,0,0,1-6.32-6.32V385.18a14.39,14.39,0,0,1,1.48-.07A18.87,18.87,0,0,1,488.88,404Z" transform="translate(-311.75 -113.34)"/><path class="cls-25" d="M569.82,335.26v15.17c-.57.05-1.15.08-1.73.08a18.84,18.84,0,0,1-18.67-21.58H563.5A6.33,6.33,0,0,1,569.82,335.26Z" transform="translate(-311.75 -113.34)"/><path class="cls-25" d="M569.82,385.2v19.67H549.25q0-.44,0-.9a18.87,18.87,0,0,1,18.87-18.86A16.56,16.56,0,0,1,569.82,385.2Z" transform="translate(-311.75 -113.34)"/><path class="cls-27" d="M577.61,328.94H563.49a6.32,6.32,0,0,1,6.33,6.32v15.16h14.11V335.26A6.31,6.31,0,0,0,577.61,328.94Z" transform="translate(-311.75 -113.34)"/><path class="cls-27" d="M569.82,385.2v19.68h7.79a6.33,6.33,0,0,0,6.32-6.33V385.13C576.74,385.12,570.28,385.13,569.82,385.2Z" transform="translate(-311.75 -113.34)"/><rect class="cls-28" x="186.24" y="210.31" width="3.43" height="1.99"/><rect class="cls-28" x="225.96" y="210.31" width="3.43" height="1.99"/><rect class="cls-26" x="183.41" y="212.29" width="9.43" height="3.29"/><rect class="cls-26" x="223.05" y="212.29" width="9.43" height="3.29"/><rect class="cls-9" x="197.4" y="267.09" width="24.15" height="11.15"/><rect class="cls-29" x="518.05" y="376.32" width="6.35" height="19.35" transform="translate(595.47 -248.56) rotate(90)"/><circle class="cls-9" cx="246.49" cy="253.47" r="8.47"/><path class="cls-18" d="M564,366.8a5.76,5.76,0,1,1-5.76-5.75A5.76,5.76,0,0,1,564,366.8Z" transform="translate(-311.75 -113.34)"/><polygon class="cls-9" points="193.54 240.33 181.49 223.25 169.45 240.33 193.54 240.33"/><polygon class="cls-30" points="173.96 237.99 181.49 227.31 189.02 237.99 173.96 237.99"/><rect class="cls-26" x="185.39" y="215.6" width="5.1" height="75.94"/><polygon class="cls-28" points="190.49 215.6 190.49 267.56 188.03 269.65 185.39 267.56 185.39 215.6 190.49 215.6"/><path class="cls-9" d="M504.25,357h-9.14a2.41,2.41,0,0,0-2.42,2.41v9.15a2.41,2.41,0,0,0,2.42,2.41h9.14a2.41,2.41,0,0,0,2.42-2.41v-9.15A2.41,2.41,0,0,0,504.25,357Zm0,11.57h-9.14l0-9.16,9.16,0,0,9.17Z" transform="translate(-311.75 -113.34)"/><rect class="cls-26" x="225.17" y="215.6" width="5.1" height="75.94"/><polygon class="cls-28" points="230.31 215.6 230.31 267.56 227.85 269.65 225.22 267.56 225.22 215.6 230.31 215.6"/><path class="cls-9" d="M544.08,357h-9.15a2.41,2.41,0,0,0-2.41,2.41v9.15a2.41,2.41,0,0,0,2.41,2.41h9.15a2.41,2.41,0,0,0,2.41-2.41v-9.15A2.41,2.41,0,0,0,544.08,357Zm0,11.57h-9.15v-9.16l9.16,0v9.17Z" transform="translate(-311.75 -113.34)"/><path class="cls-13" d="M645,368.37a36.7,36.7,0,1,1-5.27-18.95A36.49,36.49,0,0,1,645,368.37Z" transform="translate(-311.75 -113.34)"/><path class="cls-22" d="M639.77,349.42a36.87,36.87,0,0,0-8.73-9.89,36.7,36.7,0,0,1-54.4,47.39,36.71,36.71,0,1,0,63.13-37.5Z" transform="translate(-311.75 -113.34)"/><path class="cls-31" d="M599.37,394.81c.35,0,.69,0,1,0-.7,3.11-1.31,6.13-1.84,9-.49-.13-1-.28-1.44-.43s-1-.32-1.42-.49-.94-.35-1.4-.54-.91-.39-1.36-.6-.9-.42-1.34-.65-.87-.46-1.29-.7-.86-.49-1.27-.75-.87-.55-1.28-.82-.79-.55-1.17-.83l-.91-.7c-.26-.19-.51-.4-.76-.61s-.63-.51-.93-.79c-.59-.51-1.15-1.05-1.7-1.6a1.25,1.25,0,0,1-.16-.17c-.33-.32-.64-.65-.94-1l-.06-.06-.75-.85c-.15-.17-.3-.35-.44-.53l-.58-.72a35.43,35.43,0,0,1-2.72-4,36.54,36.54,0,0,0,22.72,7.88Z" transform="translate(-311.75 -113.34)"/><path class="cls-31" d="M645,368.38a36.7,36.7,0,0,1-2.93,14.38,133.57,133.57,0,0,0-6.58-18.21,37.19,37.19,0,0,0,.56-6.45,35.88,35.88,0,0,0-1.26-9.5c1.52.22,3.17.49,4.94.82A36.59,36.59,0,0,1,645,368.38Z" transform="translate(-311.75 -113.34)"/><path class="cls-18" d="M621.07,347c-.63.64-1.24,1.32-1.83,2-11.1,13.1-17.37,37.05-20.67,54.78A36.75,36.75,0,0,1,572.35,361c18.44-10.91,38.11-13.34,45.59-13.89C619.94,347,621.07,347,621.07,347Z" transform="translate(-311.75 -113.34)"/><path class="cls-18" d="M645,368.37a36.49,36.49,0,0,1-2.93,14.39c-3.53-12.19-8.42-24.3-15.11-32.48-.74-.91-1.51-1.79-2.31-2.6,0,0,1.27,0,3.51.19a108.74,108.74,0,0,1,11.57,1.55A36.49,36.49,0,0,1,645,368.37Z" transform="translate(-311.75 -113.34)"/><path class="cls-18" d="M629.54,338.41a51.43,51.43,0,0,0-4.72,4.42,39.22,39.22,0,0,0-2.62,3.08s-.19-1.43-.35-4c-.12-2-.23-4.64-.19-7.8A36.7,36.7,0,0,1,629.54,338.41Z" transform="translate(-311.75 -113.34)"/><path class="cls-31" d="M600.41,394.79c-.7,3.11-1.31,6.13-1.84,9-.49-.13-1-.28-1.44-.43s-1-.32-1.42-.49-.94-.35-1.4-.54-.91-.39-1.36-.6-.9-.42-1.34-.65-.87-.46-1.29-.7-.86-.49-1.27-.75-.87-.55-1.28-.82-.79-.55-1.17-.83l-.91-.7c-.26-.19-.51-.4-.76-.61s-.63-.51-.93-.79c-.59-.51-1.15-1.05-1.7-1.6a1.25,1.25,0,0,1-.16-.17c-.33-.32-.64-.65-.94-1l-.06-.06-.75-.85c-.15-.17-.3-.35-.44-.53l-.58-.72a35.43,35.43,0,0,1-2.72-4,36.54,36.54,0,0,0,22.72,7.88C599.72,394.81,600.06,394.81,600.41,394.79Z" transform="translate(-311.75 -113.34)"/><path class="cls-31" d="M645,368.38a36.7,36.7,0,0,1-2.93,14.38,133.57,133.57,0,0,0-6.58-18.21,37.19,37.19,0,0,0,.56-6.45,35.88,35.88,0,0,0-1.26-9.5c1.52.22,3.17.49,4.94.82A36.59,36.59,0,0,1,645,368.38Z" transform="translate(-311.75 -113.34)"/><path class="cls-22" d="M627.78,349.38c1.16-2-.1-4.9-2.8-6.47s-5.84-1.2-7,.81.09,4.9,2.8,6.47S626.62,351.39,627.78,349.38Z" transform="translate(-311.75 -113.34)"/><path class="cls-22" d="M625.13,350.21c1.16-2-.1-4.91-2.8-6.47a7,7,0,0,0-3.5-.95,3.28,3.28,0,0,0-.85.93c-1.16,2,.09,4.9,2.8,6.47a6.94,6.94,0,0,0,3.49.95A3.32,3.32,0,0,0,625.13,350.21Z" transform="translate(-311.75 -113.34)"/><rect class="cls-9" x="259.12" y="255.16" width="25.8" height="36.75" rx="2.91"/><rect class="cls-10" x="255.71" y="255.16" width="25.8" height="36.75" rx="2.91"/><path class="cls-9" d="M588.31,387.9a8.22,8.22,0,1,0-9.27,8.15,4.31,4.31,0,0,0,2.1,0A8.23,8.23,0,0,0,588.31,387.9Zm-15.85.29h1.74a10.7,10.7,0,0,0,.46,2.94h-1.49A7.61,7.61,0,0,1,572.46,388.19Zm15.26-.58H586a10.7,10.7,0,0,0-.61-3.32h1.46A7.47,7.47,0,0,1,587.72,387.61Zm-2.32,0h-2.78a25.37,25.37,0,0,0-.26-3.32h2.39A10.26,10.26,0,0,1,585.4,387.61Zm-5.08,7.92h-.45c-.33-.19-.73-.79-1.09-2a15,15,0,0,1-.37-1.78h3.36C581.44,393.87,580.84,395.22,580.32,395.53Zm-2-4.4a24.76,24.76,0,0,1-.19-2.94H582a28.11,28.11,0,0,1-.18,2.94Zm-.19-3.52a24.21,24.21,0,0,1,.26-3.32h3.39a24.5,24.5,0,0,1,.25,3.32Zm2-7.28c.34,0,.87.55,1.31,2.11.11.39.2.82.29,1.27H578.5C578.9,381.56,579.56,380.33,580.09,380.33Zm2.18,3.38a8.88,8.88,0,0,0-1.08-3.22,5.75,5.75,0,0,1,3.31,3.22Zm-4.36,0h-2.23a5.75,5.75,0,0,1,3.31-3.22A8.88,8.88,0,0,0,577.91,383.71Zm-.09.58a25.37,25.37,0,0,0-.26,3.32h-2.78a10,10,0,0,1,.66-3.32Zm-3.61,3.32h-1.75a7.61,7.61,0,0,1,.9-3.32h1.46A10.7,10.7,0,0,0,574.21,387.61Zm.57.58h2.78a25.77,25.77,0,0,0,.19,2.94h-2.49A10.23,10.23,0,0,1,574.78,388.19Zm3.05,3.52a9.65,9.65,0,0,0,1.16,3.73,6,6,0,0,1-3.53-3.73Zm3.36,3.73a9.65,9.65,0,0,0,1.16-3.73h2.37A6,6,0,0,1,581.19,395.44Zm1.24-4.31a25.77,25.77,0,0,0,.19-2.94h2.78a10.23,10.23,0,0,1-.48,2.94Zm3.55-2.94h1.74a7.61,7.61,0,0,1-.71,2.94h-1.48A11.1,11.1,0,0,0,586,388.19Zm.49-4.48h-1.34a7.59,7.59,0,0,0-2.09-2.86A7.73,7.73,0,0,1,586.47,383.71Zm-9.32-2.86a7.61,7.61,0,0,0-2.1,2.86h-1.34A7.76,7.76,0,0,1,577.15,380.85Zm-3.68,10.86h1.38a8,8,0,0,0,2,3.1A7.72,7.72,0,0,1,573.47,391.71Zm9.87,3.1a8,8,0,0,0,2-3.1h1.38A7.72,7.72,0,0,1,583.34,394.81Z" transform="translate(-311.75 -113.34)"/></g></g></svg>