<svg xmlns="http://www.w3.org/2000/svg" viewBox="0 0 410.63 398.3"><defs><style>.cls-1{isolation:isolate;}.cls-2{fill:#c2ede4;}.cls-3{fill:#8bc4f0;}.cls-4{fill:#520025;}.cls-5{fill:#ffd27a;}.cls-6,.cls-9{fill:#fff;}.cls-7{opacity:0.5;mix-blend-mode:multiply;}.cls-8{fill:#ff3b3b;}.cls-9{font-size:16.44px;font-family:Montserrat-Medium, Montserrat Medium;font-weight:500;}.cls-10{letter-spacing:0em;}.cls-11{letter-spacing:-0.05em;}.cls-12{fill:#ffa080;}.cls-13{fill:#467ca6;}.cls-14{fill:none;stroke:#fff;stroke-linecap:round;stroke-linejoin:round;}</style></defs><g class="cls-1"><g id="BACKGROUND"><path class="cls-2" d="M130.19,446.1H387.84c10.18-23.7,14.26-50.24,18.05-76q4.56-31,9.11-62c5.37-36.52,10.75-73.26,9.74-110.16s-8.76-74.34-28-105.86C386.63,75.4,372.53,60,354,53.92c-31.21-10.3-65.33,8.75-86.16,34.18S235,145,216.62,172.24a215.25,215.25,0,0,1-88.84,75.23c-25.57,11.63-56.73,21.36-66.37,47.75-3.07,8.42-3.41,17.6-2.72,26.54C62.5,370.52,95.05,411.46,130.19,446.1Z" transform="translate(-44.68 -50.85)"/><path class="cls-3" d="M348.49,436c1.54-26.57,11-116.08,68.25-148.62a4.29,4.29,0,0,1,6.38,3.18c2.95,23.13,7.79,106.87-68.25,149.44A4.3,4.3,0,0,1,348.49,436Z" transform="translate(-44.68 -50.85)"/><path class="cls-4" d="M352.86,428.19a.59.59,0,0,1-.23-.05.51.51,0,0,1-.22-.67c.61-1.21,61-121.14,66-135.28a.5.5,0,0,1,.63-.31.51.51,0,0,1,.31.64c-4.95,14.2-65.42,134.18-66,135.39A.48.48,0,0,1,352.86,428.19Z" transform="translate(-44.68 -50.85)"/><path class="cls-5" d="M353.76,446.05a32.57,32.57,0,0,1-3.56-11.3c0-.34-.09-.7-.14-1.06-1.53-12.48,1.38-33.49,26.63-58.74a287.36,287.36,0,0,0,27.63-31.6c.1-.14.21-.28.3-.42,13.88-18.71,15.53-26.63,21.41-23.16C434.58,324.83,433.41,465.48,353.76,446.05Z" transform="translate(-44.68 -50.85)"/><path class="cls-4" d="M412.46,364.36l-.27.58q-2.13,4.6-4.61,9.57c-.23.47-.47.94-.71,1.42l-.6,1.19-.55,1.08-.1.19A131.77,131.77,0,0,1,391.75,400a1.1,1.1,0,0,1-.14.18c-.62.8-1.27,1.59-1.93,2.38-.11.15-.24.3-.37.45q-1.68,2-3.45,4c-.31.35-.63.69-.95,1h0a130.94,130.94,0,0,1-21,18.34l-1,.7a131.26,131.26,0,0,1-11.37,7l-1.3.71c0-.34-.09-.7-.14-1.06l1-.53a131.19,131.19,0,0,0,37.62-30.91l.86-1.05c.47-.55.92-1.12,1.36-1.68s.88-1.12,1.31-1.69a131.91,131.91,0,0,0,12.63-20l0-.07q3.66-7.15,6.63-13.64h0c.31-.67.61-1.34.9-2,7.76-17.3,11.64-30.76,11.33-39.41a.5.5,0,0,1,.48-.51.49.49,0,0,1,.52.48C425,331.91,420.91,345.9,412.46,364.36Z" transform="translate(-44.68 -50.85)"/><path class="cls-4" d="M411.94,365h-.05a.51.51,0,0,1-.45-.55c.61-6-7-20.69-7.07-20.84a.5.5,0,1,1,.89-.46c.32.61,7.81,15.08,7.18,21.4A.51.51,0,0,1,411.94,365Z" transform="translate(-44.68 -50.85)"/><path class="cls-4" d="M406.57,376a.5.5,0,0,1-.22-.95c.52-.25,12.72-6.05,20.41-4.92a.5.5,0,1,1-.14,1c-7.37-1.09-19.71,4.77-19.84,4.83A.41.41,0,0,1,406.57,376Z" transform="translate(-44.68 -50.85)"/><path class="cls-4" d="M405.28,378.48a.5.5,0,0,1-.17-1c.61-.22,15-5.25,21.31-3.85a.5.5,0,0,1-.21,1c-6-1.33-20.62,3.76-20.77,3.81A.45.45,0,0,1,405.28,378.48Z" transform="translate(-44.68 -50.85)"/><path class="cls-4" d="M391.32,400.27a.34.34,0,0,1-.14,0,.5.5,0,0,1-.35-.61c2.66-9.54-8.32-26.42-8.43-26.59a.51.51,0,0,1,.14-.7.5.5,0,0,1,.69.15c.47.71,11.35,17.43,8.57,27.41A.5.5,0,0,1,391.32,400.27Z" transform="translate(-44.68 -50.85)"/><path class="cls-4" d="M414.82,412.9a.47.47,0,0,1-.32-.12c-7.88-6.54-29.17-4.78-29.39-4.76a.5.5,0,0,1-.09-1c.89-.07,21.93-1.81,30.11,5a.5.5,0,0,1,.07.71A.49.49,0,0,1,414.82,412.9Z" transform="translate(-44.68 -50.85)"/><path class="cls-4" d="M389.19,403a.49.49,0,0,1-.49-.43c0-.2-2.93-20.19-8.89-27.25a.5.5,0,1,1,.76-.64c6.15,7.28,9,26.92,9.12,27.75a.51.51,0,0,1-.43.57Z" transform="translate(-44.68 -50.85)"/><path class="cls-4" d="M384.94,442.52a.52.52,0,0,1-.44-.25c-5.34-9.47-21.56-15.22-21.72-15.28a.49.49,0,0,1-.31-.63.5.5,0,0,1,.63-.31c.69.24,16.75,5.93,22.28,15.73a.51.51,0,0,1-.19.68A.57.57,0,0,1,384.94,442.52Z" transform="translate(-44.68 -50.85)"/><path class="cls-3" d="M112.06,349.74a32.54,32.54,0,0,0,6.65-9.81c.13-.32.28-.65.44-1,5-11.52,8.26-32.48-8.71-63.9A286.66,286.66,0,0,1,93,236.86a4.75,4.75,0,0,1-.17-.49c-8-21.9-7.26-30-13.89-28.31C69.31,210.46,30.18,345.56,112.06,349.74Z" transform="translate(-44.68 -50.85)"/><path class="cls-4" d="M79.19,254.66c0,.21.07.42.1.64.48,3.35,1,6.84,1.68,10.49.08.51.18,1,.27,1.56s.16.87.23,1.31.15.8.22,1.19c0,.07,0,.15,0,.21a132.16,132.16,0,0,0,7.11,24.67.9.9,0,0,0,.08.21c.37.95.77,1.89,1.17,2.84l.23.53q1,2.42,2.17,4.78c.2.43.41.85.62,1.26h0A130.76,130.76,0,0,0,108,327.94c.26.33.51.65.77,1a128.46,128.46,0,0,0,8.89,10l1,1.06c.13-.32.28-.65.44-1l-.77-.78a131.13,131.13,0,0,1-27.2-40.38c-.18-.42-.36-.84-.53-1.26-.29-.66-.56-1.33-.82-2s-.52-1.32-.77-2a131.26,131.26,0,0,1-6.38-22.79.17.17,0,0,0,0-.07q-1.45-7.9-2.45-15h0c-.11-.73-.21-1.46-.3-2.16-2.48-18.8-2.35-32.81.42-41a.48.48,0,0,0-.31-.62.49.49,0,0,0-.64.31C76.44,220,76.38,234.56,79.19,254.66Z" transform="translate(-44.68 -50.85)"/><path class="cls-4" d="M79.5,255.45h0a.51.51,0,0,0,.59-.4c1.14-5.95,12.62-17.83,12.74-17.95a.5.5,0,0,0-.72-.7c-.48.5-11.8,12.22-13,18.46A.51.51,0,0,0,79.5,255.45Z" transform="translate(-44.68 -50.85)"/><path class="cls-4" d="M81.51,267.52a.48.48,0,0,0,.51-.14.51.51,0,0,0,0-.71c-.43-.38-10.46-9.43-18.16-10.55a.51.51,0,0,0-.57.42.51.51,0,0,0,.43.57c7.37,1.07,17.52,10.21,17.62,10.3A.44.44,0,0,0,81.51,267.52Z" transform="translate(-44.68 -50.85)"/><path class="cls-4" d="M82,270.25a.48.48,0,0,0,.54-.19.49.49,0,0,0-.11-.7c-.52-.38-12.86-9.31-19.32-9.78a.5.5,0,1,0-.07,1c6.16.46,18.68,9.51,18.81,9.6A.36.36,0,0,0,82,270.25Z" transform="translate(-44.68 -50.85)"/><path class="cls-4" d="M89.18,295.12a.3.3,0,0,0,.13,0,.49.49,0,0,0,.51-.49c.19-9.9,15.54-22.93,15.69-23.06a.5.5,0,0,0-.64-.77c-.65.55-15.86,13.46-16.05,23.81A.51.51,0,0,0,89.18,295.12Z" transform="translate(-44.68 -50.85)"/><path class="cls-4" d="M63.05,300.5a.57.57,0,0,0,.34,0c9.42-4,29.32,3.76,29.52,3.84a.5.5,0,0,0,.65-.28.51.51,0,0,0-.28-.65c-.83-.33-20.49-8-30.28-3.83a.49.49,0,0,0-.27.65A.51.51,0,0,0,63.05,300.5Z" transform="translate(-44.68 -50.85)"/><path class="cls-4" d="M90.43,298.37a.51.51,0,0,0,.6-.27c.08-.19,8.58-18.51,16.31-23.57a.5.5,0,0,0-.55-.84c-8,5.22-16.32,23.22-16.67,24a.49.49,0,0,0,.24.66Z" transform="translate(-44.68 -50.85)"/><path class="cls-4" d="M83.2,337.43a.51.51,0,0,0,.49-.12c7.83-7.54,25-8.41,25.19-8.42a.5.5,0,1,0,0-1c-.72,0-17.73.88-25.84,8.69a.5.5,0,0,0,0,.71A.5.5,0,0,0,83.2,337.43Z" transform="translate(-44.68 -50.85)"/><path class="cls-5" d="M137.2,446.94c.1-10.65,1-150.59-24-165.33-9.75-5.75-16.78-5.6-21.76-3.16-8,3.9-10.74,13.85-6.52,21.64C104.08,335.51,134.3,437.77,137,446.94Z" transform="translate(-44.68 -50.85)"/><path class="cls-4" d="M132.52,399.77a.5.5,0,0,1-.5-.48c-2.3-65.08-35.57-112.26-35.9-112.73a.5.5,0,0,1,.81-.58c.34.47,33.78,47.88,36.09,113.27a.5.5,0,0,1-.48.52Z" transform="translate(-44.68 -50.85)"/><path class="cls-4" d="M105,300.94a.45.45,0,0,1-.3-.11c-6.54-5.1-16.94-1.78-17-1.75a.5.5,0,1,1-.31-.95c.44-.15,11-3.52,18,1.91a.51.51,0,0,1,.09.71A.53.53,0,0,1,105,300.94Z" transform="translate(-44.68 -50.85)"/><path class="cls-4" d="M106.36,303.94a.52.52,0,0,1-.29-.09c-6-4.14-16.77-.48-16.88-.44a.5.5,0,1,1-.33-.94c.46-.16,11.31-3.87,17.78.56a.49.49,0,0,1,.13.69A.5.5,0,0,1,106.36,303.94Z" transform="translate(-44.68 -50.85)"/><path class="cls-4" d="M115.52,322.77h-.09a.5.5,0,0,1-.4-.59c1.2-6,7.8-9.84,8.08-10a.51.51,0,0,1,.68.19.49.49,0,0,1-.18.68c-.07,0-6.49,3.79-7.6,9.33A.49.49,0,0,1,115.52,322.77Z" transform="translate(-44.68 -50.85)"/><path class="cls-3" d="M138.71,446.94c-4.45-34-19.72-126.14-56.52-144-42.49-20.62-44.67,28.67-27.33,46.67,9.3,9.66,55.52,70.52,75.78,97.33Z" transform="translate(-44.68 -50.85)"/><path class="cls-4" d="M135.19,446.44a.51.51,0,0,1-.49-.39c-.24-1-24.61-102.46-81.41-132.34a.5.5,0,1,1,.47-.88c29.91,15.74,50.59,51.07,62.68,77.95a341.26,341.26,0,0,1,19.24,55.05.51.51,0,0,1-.38.6Z" transform="translate(-44.68 -50.85)"/><path class="cls-4" d="M88.36,307.44a.52.52,0,0,1-.33-.12,43.75,43.75,0,0,0-24-8.88.51.51,0,0,1-.48-.53.49.49,0,0,1,.53-.47,44.8,44.8,0,0,1,24.63,9.12.51.51,0,0,1,.06.71A.52.52,0,0,1,88.36,307.44Z" transform="translate(-44.68 -50.85)"/><path class="cls-4" d="M53.94,347.19a.52.52,0,0,1-.38-.17.51.51,0,0,1,0-.71c.13-.11,12.72-11,28.48-10.37a.49.49,0,0,1,.47.52.49.49,0,0,1-.51.48c-15.38-.64-27.66,10-27.78,10.13A.5.5,0,0,1,53.94,347.19Z" transform="translate(-44.68 -50.85)"/><path class="cls-4" d="M95.81,354.31a.51.51,0,0,1-.49-.41c-1.26-7.18,6.21-26.57,6.53-27.39a.5.5,0,1,1,.93.36c-.08.2-7.68,19.95-6.47,26.86a.51.51,0,0,1-.41.58Z" transform="translate(-44.68 -50.85)"/><path class="cls-4" d="M97.94,357.69a.5.5,0,0,1-.5-.48c-.37-11.5,6.87-25.89,7.18-26.5a.5.5,0,1,1,.89.46c-.07.14-7.44,14.77-7.07,26a.5.5,0,0,1-.48.52Z" transform="translate(-44.68 -50.85)"/><path class="cls-5" d="M133.63,446.94c-13.77-26.16-45.74-84.43-61.44-92.67-20.33-10.66-33.67,11.67-22.67,24,8,9,52.59,48.15,76.11,68.67Z" transform="translate(-44.68 -50.85)"/><path class="cls-4" d="M127.86,445.77a.51.51,0,0,1-.45-.27c-11.82-22.67-72.63-83.26-73.24-83.87a.5.5,0,0,1,0-.71.5.5,0,0,1,.71,0c.61.61,61.52,61.32,73.42,84.12a.51.51,0,0,1-.21.68A.64.64,0,0,1,127.86,445.77Z" transform="translate(-44.68 -50.85)"/><path class="cls-4" d="M50.94,377.94a.47.47,0,0,1-.42-.24.49.49,0,0,1,.16-.69c.41-.25,10.19-6.23,17.36-2.64a.49.49,0,0,1,.22.67.5.5,0,0,1-.67.22c-6.66-3.33-16.29,2.54-16.39,2.6A.42.42,0,0,1,50.94,377.94Z" transform="translate(-44.68 -50.85)"/><path class="cls-4" d="M52.32,380.56a.5.5,0,0,1-.23-.94c.51-.25,12.43-6.08,17.72-3.12a.5.5,0,0,1,.19.68.51.51,0,0,1-.68.2c-4.84-2.72-16.66,3.07-16.78,3.13A.44.44,0,0,1,52.32,380.56Z" transform="translate(-44.68 -50.85)"/><path class="cls-4" d="M78.44,386.06a.47.47,0,0,1-.46-.31c-2.57-6.41,4-17,4.29-17.45a.51.51,0,0,1,.69-.16.5.5,0,0,1,.15.69c-.06.11-6.58,10.61-4.21,16.55a.5.5,0,0,1-.27.65A.63.63,0,0,1,78.44,386.06Z" transform="translate(-44.68 -50.85)"/><path class="cls-4" d="M81.19,405.81a.48.48,0,0,1-.46-.31.5.5,0,0,1,.27-.65c.39-.16,9.51-3.81,13.9-1.74a.5.5,0,0,1,.24.67.5.5,0,0,1-.66.24c-4-1.89-13,1.72-13.1,1.76A.63.63,0,0,1,81.19,405.81Z" transform="translate(-44.68 -50.85)"/><path class="cls-4" d="M102.19,412.19a.5.5,0,0,1-.48-.36c-1-3.53,3.11-11.53,3.29-11.87a.5.5,0,1,1,.88.46c-1.15,2.21-4,8.52-3.21,11.13a.5.5,0,0,1-.34.62Z" transform="translate(-44.68 -50.85)"/><path class="cls-4" d="M104.44,414.69a.5.5,0,0,1-.49-.4c-1-4.89,2.9-11.34,3.06-11.61a.5.5,0,0,1,.86.52c0,.06-3.89,6.39-2.94,10.89a.5.5,0,0,1-.39.59Z" transform="translate(-44.68 -50.85)"/></g><g id="OBJECTS"><path class="cls-4" d="M211.52,439.73a7,7,0,1,1-7-7A7,7,0,0,1,211.52,439.73Z" transform="translate(-44.68 -50.85)"/><path class="cls-4" d="M226.36,439.73a7,7,0,1,1-7-7A7,7,0,0,1,226.36,439.73Z" transform="translate(-44.68 -50.85)"/><path class="cls-2" d="M223.23,439.73a3.83,3.83,0,1,1-3.83-3.83A3.82,3.82,0,0,1,223.23,439.73Z" transform="translate(-44.68 -50.85)"/><path class="cls-4" d="M162.77,439.73a7,7,0,1,0,7-7A7,7,0,0,0,162.77,439.73Z" transform="translate(-44.68 -50.85)"/><path class="cls-4" d="M147.94,439.73a7,7,0,1,0,7-7A7,7,0,0,0,147.94,439.73Z" transform="translate(-44.68 -50.85)"/><path class="cls-2" d="M151.07,439.73a3.83,3.83,0,1,0,3.83-3.83A3.82,3.82,0,0,0,151.07,439.73Z" transform="translate(-44.68 -50.85)"/><rect class="cls-6" x="119.42" y="172.25" width="6.08" height="81.67"/><rect class="cls-6" x="159.42" y="172.25" width="6.08" height="81.67"/><path class="cls-4" d="M211.48,226.69h-8V218H170.82v7.75h-8v-11a4.75,4.75,0,0,1,4.75-4.75h39.16a4.75,4.75,0,0,1,4.75,4.75Z" transform="translate(-44.68 -50.85)"/><rect class="cls-4" x="119.43" y="241.76" width="6.06" height="5.63"/><rect class="cls-4" x="159.43" y="241.76" width="6.06" height="5.63"/><rect class="cls-5" x="91.77" y="247.4" width="101.39" height="134.36" rx="11.58"/><rect class="cls-4" x="107.96" y="372.73" width="68.67" height="9"/><g class="cls-7"><path class="cls-5" d="M153.82,422.58h0a2.33,2.33,0,0,1-2.34-2.33v-93a2.33,2.33,0,0,1,2.34-2.33h0a2.33,2.33,0,0,1,2.33,2.33v93A2.33,2.33,0,0,1,153.82,422.58Z" transform="translate(-44.68 -50.85)"/><path class="cls-5" d="M167.15,422.58h0a2.33,2.33,0,0,1-2.33-2.33v-93a2.33,2.33,0,0,1,2.33-2.33h0a2.33,2.33,0,0,1,2.33,2.33v93A2.33,2.33,0,0,1,167.15,422.58Z" transform="translate(-44.68 -50.85)"/><rect class="cls-5" x="133.46" y="274.06" width="4.67" height="97.67" rx="2.33"/><path class="cls-5" d="M193.82,422.58h0a2.33,2.33,0,0,1-2.34-2.33v-93a2.33,2.33,0,0,1,2.34-2.33h0a2.33,2.33,0,0,1,2.33,2.33v93A2.33,2.33,0,0,1,193.82,422.58Z" transform="translate(-44.68 -50.85)"/><path class="cls-5" d="M207.15,422.58h0a2.33,2.33,0,0,1-2.33-2.33v-93a2.33,2.33,0,0,1,2.33-2.33h0a2.33,2.33,0,0,1,2.33,2.33v93A2.33,2.33,0,0,1,207.15,422.58Z" transform="translate(-44.68 -50.85)"/><rect class="cls-5" x="173.46" y="274.06" width="4.67" height="97.67" rx="2.33"/></g><path class="cls-6" d="M156,312.68l-9.26,16a1.57,1.57,0,0,0,1.36,2.35h18.51a1.57,1.57,0,0,0,1.36-2.35l-9.26-16A1.56,1.56,0,0,0,156,312.68Z" transform="translate(-44.68 -50.85)"/><path class="cls-3" d="M156.38,316.22,150,327.3a1.09,1.09,0,0,0,.94,1.63h12.79a1.09,1.09,0,0,0,.94-1.63l-6.4-11.08A1.07,1.07,0,0,0,156.38,316.22Z" transform="translate(-44.68 -50.85)"/><circle class="cls-6" cx="192.65" cy="311.98" r="8.79" transform="translate(-199.83 377.25) rotate(-76.77)"/><path class="cls-2" d="M199.61,312a7,7,0,0,1-4.71,6.58s-.05,0-.07,0a6.94,6.94,0,0,1-4.66-.11.09.09,0,0,1-.06,0,6.95,6.95,0,0,1,0-12.94l.06,0a6.94,6.94,0,0,1,4.66-.11s0,0,.07,0A7,7,0,0,1,199.61,312Z" transform="translate(-44.68 -50.85)"/><path class="cls-8" d="M190.17,305.48v13a.09.09,0,0,1-.06,0,6.95,6.95,0,0,1,0-12.94Z" transform="translate(-44.68 -50.85)"/><path class="cls-8" d="M199.61,312a7,7,0,0,1-4.71,6.58s-.05,0-.07,0V305.37s0,0,.07,0A7,7,0,0,1,199.61,312Z" transform="translate(-44.68 -50.85)"/><polygon class="cls-4" points="96.94 375.02 96.24 374.32 100.84 369.71 100.84 258.96 96.49 254.61 97.19 253.9 101.84 258.55 101.84 370.13 96.94 375.02"/><polygon class="cls-4" points="187.65 375.02 182.76 370.13 182.76 258.55 187.4 253.9 188.11 254.61 183.76 258.96 183.76 369.71 188.36 374.32 187.65 375.02"/><rect class="cls-4" x="299.32" y="82.13" width="11.06" height="313.79"/><path class="cls-4" d="M319.19,170.64l72.57-2.4,1.2,20.55-72.33,6.1a.57.57,0,0,1-.36-.09L302.42,184a.73.73,0,0,1-.05-1.2l16.49-12A.7.7,0,0,1,319.19,170.64Z" transform="translate(-44.68 -50.85)"/><text class="cls-9" transform="translate(277.11 138.03) rotate(-3.23)">T<tspan class="cls-10" x="8.17" y="0">R</tspan><tspan class="cls-11" x="17.1" y="0">A</tspan><tspan x="26.29" y="0">VEL</tspan></text><path class="cls-4" d="M382.7,227.52,312.28,245.2l-5.52-19.83,69.41-21.24a.59.59,0,0,1,.37,0L396.28,211a.73.73,0,0,1,.3,1.17L383,227.34A.59.59,0,0,1,382.7,227.52Z" transform="translate(-44.68 -50.85)"/><text class="cls-9" transform="translate(288.56 183.29) rotate(-12.95)">THE</text><path class="cls-4" d="M316.86,256.31l72.57-2.4,1.2,20.54-72.33,6.11a.57.57,0,0,1-.36-.09l-17.85-10.85a.73.73,0,0,1,0-1.21l16.49-12A.57.57,0,0,1,316.86,256.31Z" transform="translate(-44.68 -50.85)"/><text class="cls-9" transform="translate(274.76 223.43) rotate(-2.98)">WORLD</text><path class="cls-6" d="M344,278.31a27.92,27.92,0,0,1,5.48-.93,27.22,27.22,0,0,1,5.56.06,30.51,30.51,0,0,1-11,.87Z" transform="translate(-44.68 -50.85)"/><path class="cls-6" d="M344.07,255.4a29.94,29.94,0,0,1,10.95-.29,26.68,26.68,0,0,1-5.46.64A27.39,27.39,0,0,1,344.07,255.4Z" transform="translate(-44.68 -50.85)"/><path class="cls-6" d="M344.07,237.15A32,32,0,0,1,355,234.56a27.41,27.41,0,0,1-5.36,1.78A28.23,28.23,0,0,1,344.07,237.15Z" transform="translate(-44.68 -50.85)"/><path class="cls-6" d="M344.07,213.94a28.77,28.77,0,0,1,5.29-2.08,29.06,29.06,0,0,1,5.58-1.13,27.5,27.5,0,0,1-5.3,2.08A28.81,28.81,0,0,1,344.07,213.94Z" transform="translate(-44.68 -50.85)"/><path class="cls-6" d="M344.11,192.94a12.77,12.77,0,0,1,2.67-.68c.91-.16,1.81-.26,2.72-.34A25.77,25.77,0,0,1,355,192a26.44,26.44,0,0,1-5.4.93c-.91.07-1.81.12-2.73.12S345,193,344.11,192.94Z" transform="translate(-44.68 -50.85)"/><path class="cls-6" d="M344.23,169.77a29.22,29.22,0,0,1,10.71-.21,24.92,24.92,0,0,1-5.34.61A25.58,25.58,0,0,1,344.23,169.77Z" transform="translate(-44.68 -50.85)"/><path class="cls-4" d="M453.82,449.15h-395a1.5,1.5,0,1,1,0-3h395a1.5,1.5,0,1,1,0,3Z" transform="translate(-44.68 -50.85)"/><path class="cls-12" d="M305.32,407.76l-5.71-5.06h0l-13.06-20.86c-2.56-.22-5.12-.47-7.68-.77-7.29-.84-14.56-1.83-21.85-2.7,18.13,18.82,31.4,32.54,31.47,32.61h0s-8.29,13.41-10.94,18.86a.61.61,0,0,0,.92.76l26.72-19.9A1.9,1.9,0,0,0,305.32,407.76Z" transform="translate(-44.68 -50.85)"/><path class="cls-3" d="M300.87,403.05a11.25,11.25,0,0,1,4.81,4.54S284,427.11,275.82,430.24c0,0,4.06-5.25,6.17-8.76,1.63-2.71,3.78-9.48,4.68-12.41a1.18,1.18,0,0,1,1.67-.7,13.66,13.66,0,0,0,4,1.55c1.73.19,5.1-3.35,7-6.45A1.16,1.16,0,0,1,300.87,403.05Z" transform="translate(-44.68 -50.85)"/><path class="cls-6" d="M305.68,407.59s2.06,2.19,2.25,3-20.85,20-30.67,23.52a5.46,5.46,0,0,1-1.44-3.89Z" transform="translate(-44.68 -50.85)"/><path class="cls-4" d="M286.23,411a7.43,7.43,0,0,1,1.57-.22,2.35,2.35,0,0,1,.85.09.65.65,0,0,1,.48.45.55.55,0,0,1-.05.41,1.1,1.1,0,0,1-.15.24,5.1,5.1,0,0,1-1.37,1,12.63,12.63,0,0,1-1.45.66l.05-.89a10.72,10.72,0,0,1,1.76,1.09,3.62,3.62,0,0,1,.8.81,1.18,1.18,0,0,1,.22.77.88.88,0,0,1-.21.46,2.14,2.14,0,0,1-.25.21,6.64,6.64,0,0,1-2,.75,12,12,0,0,1-2,.31l1.82-.81a7.89,7.89,0,0,0,1.63-.92,1.13,1.13,0,0,0,.11-.11s0,0,0,0,0-.06-.09-.14a4.06,4.06,0,0,0-.64-.56,16.16,16.16,0,0,0-1.61-1h0a.49.49,0,0,1,.06-.89c.46-.17.94-.36,1.4-.55a6.4,6.4,0,0,0,1.23-.67c.06-.06.08-.12.08,0s0,0-.06,0a3.23,3.23,0,0,0-.66-.2C287.27,411.1,286.75,411,286.23,411Z" transform="translate(-44.68 -50.85)"/><path class="cls-4" d="M302.61,404.65c.11.85.1,1.55.14,2.24,0,.34.07.67.11,1s.15.68.25,1.11a1.85,1.85,0,0,1-1-.83,2.75,2.75,0,0,1-.37-1.24,3,3,0,0,1,.18-1.24A2.34,2.34,0,0,1,302.61,404.65Z" transform="translate(-44.68 -50.85)"/><path class="cls-12" d="M274,380.48c-7.8-1-15.59-2-23.4-2.85-.74-.08-1.49-.14-2.24-.2-2.46,29.23-4.4,52.85-4.8,57.74-2.44.95-14.81,5.8-19.68,8.27a.62.62,0,0,0,.29,1.16l33.3.26a1.9,1.9,0,0,0,1.88-2.27l-1.5-7.48,15.67-53C273.71,381.59,273.86,381,274,380.48Z" transform="translate(-44.68 -50.85)"/><path class="cls-3" d="M258.9,435.21a11.29,11.29,0,0,1,1.17,6.51s-29.07,2.76-37.48.43c0,0,6.39-1.8,10.17-3.37,2.92-1.2,8.68-5.36,11.15-7.19a1.17,1.17,0,0,1,1.76.44,13.64,13.64,0,0,0,2.3,3.63c1.28,1.18,6.09.34,9.46-1A1.16,1.16,0,0,1,258.9,435.21Z" transform="translate(-44.68 -50.85)"/><path class="cls-6" d="M260.07,441.72s.35,3,0,3.77-28.66,3.66-38.65.65a5.49,5.49,0,0,1,1.16-4Z" transform="translate(-44.68 -50.85)"/><path class="cls-4" d="M241.53,434a7.1,7.1,0,0,1,1.47.57,2.6,2.6,0,0,1,.7.5.65.65,0,0,1,.2.63.69.69,0,0,1-.24.34,1.58,1.58,0,0,1-.26.13,4.7,4.7,0,0,1-1.67.18,12,12,0,0,1-1.59-.12l.48-.76a10.68,10.68,0,0,1,1,1.82,3.77,3.77,0,0,1,.3,1.09,1.12,1.12,0,0,1-.19.78.85.85,0,0,1-.4.3l-.33.06a6.58,6.58,0,0,1-2.08-.31,11.52,11.52,0,0,1-1.88-.71l2,.19a8.34,8.34,0,0,0,1.87,0,1.31,1.31,0,0,0,.15-.05s0,0,0,0,0-.07,0-.17a3.84,3.84,0,0,0-.27-.81,16.8,16.8,0,0,0-.92-1.65v0a.49.49,0,0,1,.16-.67.55.55,0,0,1,.33-.07c.49.08,1,.15,1.49.2a5.51,5.51,0,0,0,1.4,0c.08,0,.13-.06.09,0s0,0,0-.07a3.67,3.67,0,0,0-.48-.5C242.37,434.61,242,434.31,241.53,434Z" transform="translate(-44.68 -50.85)"/><path class="cls-4" d="M259.41,437.38c-.32.8-.68,1.4-1,2a8.88,8.88,0,0,0-.41.94c-.12.32-.21.66-.33,1.09a1.87,1.87,0,0,1-.44-1.2,2.77,2.77,0,0,1,.28-1.27,3.4,3.4,0,0,1,.76-1A2.65,2.65,0,0,1,259.41,437.38Z" transform="translate(-44.68 -50.85)"/><path class="cls-6" d="M300.9,248.48c1.75-7.58,4.84-33.75,3.92-38.41s-7.92-28.75-7.92-28.75l-10.33-.67L246.45,177l-9.49,25-.35.9-11,29a117.59,117.59,0,0,0-5.31,18.49L208.17,311a20.36,20.36,0,0,0,4.67,17.43l35.44,40.33-5.46,61.11,17.25,1.5c5.24-10.69,9.28-22.95,12.38-35.11l11.74,13.36L299,400s-8.9-15.75-20.43-33.78c3.07-19.62,3.8-34.34,3.8-34.34S299.15,256.07,300.9,248.48Zm-49,80.31a78.87,78.87,0,0,0-11.28-11.39l23.33-84Z" transform="translate(-44.68 -50.85)"/><path class="cls-4" d="M253.74,181.26c0,.57-.86,14-7.87,19.61a10.68,10.68,0,0,1-6.83,2.38,13.14,13.14,0,0,1-2.22-.19.4.4,0,0,1-.21-.09l.35-.9h0a10,10,0,0,0,8.25-2c6.67-5.33,7.49-18.74,7.5-18.87a.5.5,0,0,1,.52-.48A.52.52,0,0,1,253.74,181.26Z" transform="translate(-44.68 -50.85)"/><path class="cls-4" d="M240.65,317.9h-.11l-3.25-.75a.5.5,0,1,1,.22-1l2.43.56L238.58,312a.5.5,0,0,1,1-.27l1.58,5.58a.51.51,0,0,1-.48.64Z" transform="translate(-44.68 -50.85)"/><path class="cls-4" d="M273.6,183.57a.49.49,0,0,0-.53.46l-2.16,27.51-5.72,7.38,2.54-35.32a.5.5,0,0,0-1-.07l-3.66,51a.49.49,0,0,0,.46.53h0a.49.49,0,0,0,.49-.46l1-13.88,6.73-8.68a.54.54,0,0,0,.11-.27l2.16-27.67A.49.49,0,0,0,273.6,183.57Z" transform="translate(-44.68 -50.85)"/><path class="cls-4" d="M281.82,404.09a.5.5,0,0,1-.26-.94l13.5-7.87a.51.51,0,0,1,.69.18.49.49,0,0,1-.18.68L282.07,404A.59.59,0,0,1,281.82,404.09Z" transform="translate(-44.68 -50.85)"/><path class="cls-4" d="M294.05,185.51a.5.5,0,0,0-1,.28c.05.16,3.1,10.74,4.88,20.39a8.3,8.3,0,0,1-6.44-2.15c-5.93-5.43-5.71-19.11-5.7-19.25a.52.52,0,0,0-.49-.51h0a.49.49,0,0,0-.5.49c0,.58-.24,14.27,6,20a9.17,9.17,0,0,0,6.37,2.46c.3,0,.62,0,.93-.06.84,4.78,1.33,9.22.93,11.91-.54,3.7-4.84,27.84-9.82,55.78-6.32,35.44-13.47,75.61-14.18,81-.07.53-.18,1.23-.33,2.05-3.79,16.25-14.67,64.1-15.31,66.74L245.25,423a.5.5,0,1,0-.12,1l16.63,1.93h.06a.5.5,0,0,0,.05-1l-1.44-.17c.71-2.92,11.1-48.31,14.78-64.06v0c0-.17.07-.33.1-.5v-.05h0c.35-1.8.61-3.24.73-4.18.7-5.34,7.86-45.5,14.17-80.93,5-27.95,9.28-52.1,9.83-55.81C301.31,210.71,294.34,186.53,294.05,185.51Z" transform="translate(-44.68 -50.85)"/><path class="cls-4" d="M248.17,368.5c.1-3.35.31-6.69.53-10s.51-6.68.8-10,.64-6.66,1-10l.6-5c.24-1.66.44-3.32.7-5,0,1.68-.14,3.35-.21,5l-.32,5c-.22,3.34-.51,6.67-.8,10s-.64,6.66-1,10S248.68,365.19,248.17,368.5Z" transform="translate(-44.68 -50.85)"/><path class="cls-4" d="M272.42,396.33c.38-2.54.86-5.06,1.34-7.58s1-5,1.53-7.54l1.63-7.51c.28-1.25.56-2.51.81-3.76s.52-2.51.77-3.77a59.93,59.93,0,0,1-.82,7.67c-.39,2.54-.89,5.06-1.41,7.57s-1.11,5-1.76,7.5S273.2,393.88,272.42,396.33Z" transform="translate(-44.68 -50.85)"/><path class="cls-12" d="M295.8,82.5a4.17,4.17,0,0,0-.6-.64,2.85,2.85,0,0,0-3.66.12V77a14.59,14.59,0,0,0-29.17,0v5a2.8,2.8,0,0,0-3.93.15,4,4,0,0,0-.31.37,3.68,3.68,0,0,0-.6,2.7c.3,2.76,2.7,5.94,5,5.91a14.56,14.56,0,0,0,28.84,0c2.31,0,4.73-3.18,5-6h0A3.7,3.7,0,0,0,295.8,82.5Z" transform="translate(-44.68 -50.85)"/><path class="cls-4" d="M279.09,76.6a4.49,4.49,0,0,1,1.93-.66,5.82,5.82,0,0,1,2,.15,5.43,5.43,0,0,1,1.89.83,5.17,5.17,0,0,1,1.38,1.46.39.39,0,0,1-.11.54.37.37,0,0,1-.39,0l-.05,0a8.63,8.63,0,0,0-1.51-.72,6.78,6.78,0,0,0-1.54-.37c-.52-.06-1.05-.06-1.59-.07s-1.11,0-1.65,0h-.1a.61.61,0,0,1-.56-.65A.63.63,0,0,1,279.09,76.6Z" transform="translate(-44.68 -50.85)"/><path class="cls-4" d="M274.69,77.72c-.54,0-1.12,0-1.65,0s-1.07,0-1.59.07a6.78,6.78,0,0,0-1.54.37,9.07,9.07,0,0,0-1.52.72l0,0a.39.39,0,0,1-.52-.15.38.38,0,0,1,0-.4,4.91,4.91,0,0,1,1.38-1.46,5.46,5.46,0,0,1,1.88-.83,5.87,5.87,0,0,1,2-.15,4.41,4.41,0,0,1,1.92.66.61.61,0,0,1,.18.84.61.61,0,0,1-.46.27Z" transform="translate(-44.68 -50.85)"/><path class="cls-4" d="M276.25,92.78a14.55,14.55,0,0,0,3.6-.44,6.16,6.16,0,0,0,3-1.87A3.8,3.8,0,0,1,281.75,92a4.94,4.94,0,0,1-1.73.9A6.21,6.21,0,0,1,276.25,92.78Z" transform="translate(-44.68 -50.85)"/><path class="cls-4" d="M279.55,94.11c.49-.19,1-.3,1.42-.49a3.4,3.4,0,0,0,1.27-.71,1.89,1.89,0,0,1-1.16,1A3.34,3.34,0,0,1,279.55,94.11Z" transform="translate(-44.68 -50.85)"/><path class="cls-4" d="M277.28,81.3a10.37,10.37,0,0,1,.28,2.48,7.52,7.52,0,0,1-.39,2.51,7.88,7.88,0,0,0-.71,2.16,1.43,1.43,0,0,0,.26,1,1.07,1.07,0,0,0,1,.41,1.12,1.12,0,0,1-1.28-.08,1.71,1.71,0,0,1-.68-1.24A5.6,5.6,0,0,1,276.3,86,41,41,0,0,0,277.28,81.3Z" transform="translate(-44.68 -50.85)"/><path class="cls-4" d="M259,84.53a1.86,1.86,0,0,1,.66-1.44,1.24,1.24,0,0,1,.89-.25,1.56,1.56,0,0,1,.84.39,3.92,3.92,0,0,1,.94,1.36c.23.46.41.92.62,1.38a.46.46,0,0,1-.24.6.45.45,0,0,1-.54-.13v0a1.76,1.76,0,0,0-1.1-.66.67.67,0,0,0-.5.06.82.82,0,0,0-.31.44,1.53,1.53,0,0,0,.34,1.28,1.62,1.62,0,0,0,1.31.77,1.62,1.62,0,0,1-1.65-.45,2,2,0,0,1-.73-1.76,1.53,1.53,0,0,1,.56-.95,1.46,1.46,0,0,1,1.1-.27,2.51,2.51,0,0,1,1.71,1l-.79.44c-.18-.46-.38-.93-.55-1.4a4.09,4.09,0,0,0-.64-1.19.82.82,0,0,0-1-.27A1.89,1.89,0,0,0,259,84.53Z" transform="translate(-44.68 -50.85)"/><path class="cls-4" d="M294.94,84.53a1.84,1.84,0,0,0-.88-1.07.82.82,0,0,0-1,.27,4.09,4.09,0,0,0-.64,1.19c-.17.47-.37.94-.55,1.4l-.79-.44a2.51,2.51,0,0,1,1.71-1,1.42,1.42,0,0,1,1.65,1.22,2,2,0,0,1-.72,1.76,1.63,1.63,0,0,1-1.65.45,1.62,1.62,0,0,0,1.31-.77,1.53,1.53,0,0,0,.34-1.28.82.82,0,0,0-.31-.44.67.67,0,0,0-.5-.06,1.76,1.76,0,0,0-1.1.66v0a.46.46,0,0,1-.64.08A.47.47,0,0,1,291,86c.21-.46.39-.92.62-1.38a3.79,3.79,0,0,1,.94-1.36,1.56,1.56,0,0,1,.84-.39,1.24,1.24,0,0,1,.89.25A1.82,1.82,0,0,1,294.94,84.53Z" transform="translate(-44.68 -50.85)"/><path class="cls-4" d="M283.22,84.11c0,1.22-.53,2.22-1.18,2.22s-1.18-1-1.18-2.22.53-2.23,1.18-2.23S283.22,82.88,283.22,84.11Z" transform="translate(-44.68 -50.85)"/><path class="cls-4" d="M271.5,84.11c0,1.22.53,2.22,1.18,2.22s1.18-1,1.18-2.22-.53-2.23-1.18-2.23S271.5,82.88,271.5,84.11Z" transform="translate(-44.68 -50.85)"/><path class="cls-4" d="M290.32,66.48c-.42-3.92-5.34-8.92-9-9.83s-4.42,2.75-4.42,2.75a12,12,0,0,0-5.52-3.47,4.17,4.17,0,0,1-2.29,5.35c-3,1.48-6.68,3-9.44,5-7.77,5.58-5.65,10-5,11a46.86,46.86,0,0,0,3.77,4.88c1.75-1.8,3.88-.13,3.88-.13l2.45,2.42c1.71-1.67,1.09-11.21,1.09-11.21s13.87,3.58,16.91,2S284.23,71,284.23,71c1.88.63,3.42,2.92,4.29,7.33s1.7,4.73,1.7,4.73c1.59-1.51,2.86-1.85,3.66-1.77C301.32,74.27,290.32,66.48,290.32,66.48Z" transform="translate(-44.68 -50.85)"/><path class="cls-5" d="M258.19,67.12s1.3-10.56,3.25-13.15,18.21-4.61,22.46-1.66,6.54,14.31,6.54,14.31S271.62,57.1,258.19,67.12Z" transform="translate(-44.68 -50.85)"/><path class="cls-5" d="M296.41,85.15a3.88,3.88,0,0,0-.61-2.65c-.47-.67-2-1.07-2.21-1.24,3.32-10.63-1.86-14.47-13.19-15.61-12.42-1.25-22.52,2.12-23.77,8.62-1,5.23,1.38,7.12,2.09,7.57-.1.11-.49.52-.59.66a3.68,3.68,0,0,0-.6,2.7c-17.91-9.82,1.18-30.24,24.13-25.63C300.44,63.35,303.3,76.53,296.41,85.15Z" transform="translate(-44.68 -50.85)"/><path class="cls-4" d="M258.77,63.36a23.63,23.63,0,0,1,7.14-3.55,31.6,31.6,0,0,1,7.89-1.42,30.21,30.21,0,0,1,8,.67,23.92,23.92,0,0,1,7.43,2.88,26.19,26.19,0,0,0-3.74-1.28,29.78,29.78,0,0,0-3.83-.85,38.49,38.49,0,0,0-7.8-.42,40.52,40.52,0,0,0-7.74,1.15,34.59,34.59,0,0,0-3.74,1.19A25.93,25.93,0,0,0,258.77,63.36Z" transform="translate(-44.68 -50.85)"/><path class="cls-4" d="M276.07,51.4c1.73,1.27,3.35,2.57,5.1,3.68a17.56,17.56,0,0,0,2.69,1.47,8.52,8.52,0,0,0,3,.72,5.38,5.38,0,0,1-3.25,0,10.33,10.33,0,0,1-3-1.36,15.45,15.45,0,0,1-2.52-2A13.14,13.14,0,0,1,276.07,51.4Z" transform="translate(-44.68 -50.85)"/><path class="cls-4" d="M269.61,51.86a9.3,9.3,0,0,1-1.4,2.73,11.35,11.35,0,0,1-2.15,2.23,9.24,9.24,0,0,1-2.74,1.49,7.38,7.38,0,0,1-3.05.42A20,20,0,0,0,263,57.6,15.51,15.51,0,0,0,265.45,56,26.9,26.9,0,0,0,269.61,51.86Z" transform="translate(-44.68 -50.85)"/><path class="cls-12" d="M209.53,160.1c1.14-2.07,2.29-4.15,3.48-6.2.74-2,1.56-4.06,2.42-6.06-12.5-17.31-26.15-36.37-26.15-36.37l-7.06,4.29C186,126.5,197.83,150.5,205.61,166,206.85,163.88,208.24,161.9,209.53,160.1Z" transform="translate(-44.68 -50.85)"/><path class="cls-12" d="M183.05,118s-10-8.26-9.7-9.12,3.42,1.13,3.42,1.13-4.24-4.51-4-5,5.12,3.15,5.12,3.15-3.76-5.83-3.36-6.23,5.08,4.11,5.08,4.11-2.35-5.1-2.07-5.38,7.55,6.52,7.55,6.52a11.44,11.44,0,0,1,1.68-.69c.43-.08,4,7.17,4,7.17Z" transform="translate(-44.68 -50.85)"/><rect class="cls-2" x="132.35" y="34.91" width="9.78" height="30.2"/><rect class="cls-2" x="172.54" y="84.83" width="9.78" height="30.2" transform="translate(-65.86 4.13) rotate(-16.64)"/><path class="cls-4" d="M184.23,106a.51.51,0,0,1-.48-.36L178,86.21a.5.5,0,1,1,1-.29l5.75,19.42a.5.5,0,0,1-.34.62Z" transform="translate(-44.68 -50.85)"/><path class="cls-4" d="M171.88,96a.5.5,0,0,1-.16-1l7.68-2.63a.51.51,0,0,1,.64.32.5.5,0,0,1-.31.63L172,96Z" transform="translate(-44.68 -50.85)"/><path class="cls-4" d="M179,114.9a.5.5,0,0,1-.48-.37l-4-15.13a.5.5,0,0,1,.36-.61.5.5,0,0,1,.61.35l4,15.13a.5.5,0,0,1-.36.61Z" transform="translate(-44.68 -50.85)"/><path class="cls-4" d="M180.88,114.34a.51.51,0,0,1-.49-.38c-2.76-11.19-2.76-11.36-2.76-11.44a.5.5,0,0,1,.5-.5.51.51,0,0,1,.5.45c.08.45,1.67,7,2.73,11.25a.49.49,0,0,1-.36.6Zm-2.25-11.82h0Z" transform="translate(-44.68 -50.85)"/><path class="cls-12" d="M186.82,106.48s-3.13-1.21-4-.58,3.16,3.66,3.91,4c0,0-3,4.58.25,6.29l2.46-1.5Z" transform="translate(-44.68 -50.85)"/><path class="cls-4" d="M248.39,124.21a25.68,25.68,0,0,1,3.08-12.3c1.54-2.79,3.73-5.43,6.72-6.26,7.17-2,34.88-2.25,45.71,4.58s-.5,71-3,71.67-36.67,2.16-45.17-4.67C248.73,171.6,248.32,136.45,248.39,124.21Z" transform="translate(-44.68 -50.85)"/><rect class="cls-12" x="226.11" y="49.71" width="12.33" height="11.85"/><path class="cls-4" d="M283.12,102.27v2.36a14.53,14.53,0,0,1-12.32,0v-2.36a14.53,14.53,0,0,0,12.32,0Z" transform="translate(-44.68 -50.85)"/><path class="cls-12" d="M301.19,122c-2.49-8.65-16.77-12.89-22.34-14.23l-2.26-.19c-5.72.39-20.5,2.18-24.4,10.3-3.54,7.38-4.67,56.71-4.67,56.71l48.8,4.11S303.45,129.87,301.19,122Z" transform="translate(-44.68 -50.85)"/><path class="cls-13" d="M247,174.71l-1.63,4a.74.74,0,0,0,.59,1c6.31.82,42.43,5.39,51.33,4.21a.74.74,0,0,0,.6-.95l-1.35-4.35a.74.74,0,0,0-.65-.51l-48.15-3.86A.74.74,0,0,0,247,174.71Z" transform="translate(-44.68 -50.85)"/><path class="cls-3" d="M194.8,146.26a1.12,1.12,0,0,0-.13,1,26.5,26.5,0,0,0,1.4,3.47c.29.36,11.14-9.39,13.93-11.91a1.11,1.11,0,0,0,.23-1.37c-.85-1.54-2.79-4.86-4-5.3C204.82,131.63,196.53,143.72,194.8,146.26Z" transform="translate(-44.68 -50.85)"/><path class="cls-3" d="M349.4,125.4c-5.8-2.13-42.12-10.9-58.31-14.77.78-1.08,1-1.89.35-2.23a32.7,32.7,0,0,0-8.31-2.53l0,3.12.21-.22-4.55,6.36-4.08,5.7-4-12.62.11,0,0-2.57s-5.65-.26-9,2.24c-.62.46-.55,1.33,0,2.42a38.6,38.6,0,0,0-4.38,1.8c-.24.1-.47.22-.71.34-.83.43-1.91,1.06-3.2,1.89-9.06,5.81-28,20.83-35.25,35.72L207.07,134.9l-11.83,12.33s14.16,32,21.16,33.67,32.17-36.17,32.17-36.17-1,9.7-1.6,18.53c-.14,2.05-.26,4.06-.34,5.88-.1,2.43-.14,4.53-.06,6,0,0,45.5,4.63,50.38,3.87,0,0,.69-5.32,1.56-12.35.19-1.53.39-3.14.59-4.79,1.46-12,3.11-26.27,3-28.6l28.65,8.8-11.53,4.2,10.13,13s43.09-9.58,44.58-16.21C375.74,134.9,356.9,128.15,349.4,125.4Z" transform="translate(-44.68 -50.85)"/><path class="cls-3" d="M333.52,159.35a27.73,27.73,0,0,1-3.61,1,1.08,1.08,0,0,1-1-.25l-1.49-1.31c-3.22-2.85-9.51-8.57-10.89-10.89-.24-.4-.34-.69-.25-.86.59-1.14,4.12-2.67,5.75-3.32a1.11,1.11,0,0,1,1.33.39C325.55,147.16,333.92,159.11,333.52,159.35Z" transform="translate(-44.68 -50.85)"/><path class="cls-4" d="M261.86,110.48c2,2,3.76,4,5.58,6.09l2.7,3.1c.91,1,1.8,2,2.76,3.06a27,27,0,0,1-6.22-5.5A40.78,40.78,0,0,1,261.86,110.48Z" transform="translate(-44.68 -50.85)"/><path class="cls-4" d="M277.57,122.48c2.21-1.93,4.51-3.69,6.77-5.5,1.14-.9,2.24-1.82,3.34-2.75a23.35,23.35,0,0,0,3.09-3,12.28,12.28,0,0,1-2.55,3.6,32.71,32.71,0,0,1-3.26,3A40.48,40.48,0,0,1,277.57,122.48Z" transform="translate(-44.68 -50.85)"/><path class="cls-4" d="M250.41,142.05a2.88,2.88,0,0,1-.53,1.66,2.76,2.76,0,0,1-1.35,1.09,2.82,2.82,0,0,1,.53-1.65A2.88,2.88,0,0,1,250.41,142.05Z" transform="translate(-44.68 -50.85)"/><path class="cls-4" d="M209.9,138.9a91.22,91.22,0,0,1,6.44,8,89.33,89.33,0,0,1,5.64,8.58,91.22,91.22,0,0,1-6.44-8A92.58,92.58,0,0,1,209.9,138.9Z" transform="translate(-44.68 -50.85)"/><path class="cls-4" d="M221,150.23a2.24,2.24,0,0,1-2.83-.17,2.19,2.19,0,0,1,1.44-.41A2.15,2.15,0,0,1,221,150.23Z" transform="translate(-44.68 -50.85)"/><path class="cls-4" d="M196.69,150.31a58.75,58.75,0,0,1,5.82-5.67,59.8,59.8,0,0,1,6.47-4.91,66,66,0,0,1-12.29,10.58Z" transform="translate(-44.68 -50.85)"/><path class="cls-4" d="M207.07,133.27c-.85,1.17-1.74,2.3-2.65,3.4s-1.83,2.19-2.67,3.3a5,5,0,0,0-.52.77s0,0,0,0a.33.33,0,0,0,0-.15.4.4,0,0,0-.23-.23c-.18-.05-.15,0-.16,0a.1.1,0,0,0,.06,0,2.86,2.86,0,0,0,.44-.2A13.64,13.64,0,0,0,203,139c1.13-.84,2.26-1.72,3.4-2.6a21.51,21.51,0,0,1-2.91,3.2,10.87,10.87,0,0,1-1.77,1.35,4.49,4.49,0,0,1-.54.26l-.19.07c-.05,0-.07,0-.15,0h-.1l-.17,0a.59.59,0,0,1-.32-.32.7.7,0,0,1,0-.29,1.28,1.28,0,0,1,.07-.26,5.72,5.72,0,0,1,.63-1,34.26,34.26,0,0,1,2.9-3.22A38.32,38.32,0,0,1,207.07,133.27Z" transform="translate(-44.68 -50.85)"/><path class="cls-4" d="M195.15,148.06a13.89,13.89,0,0,1,6.25-3.95,13.89,13.89,0,0,1-6.25,3.95Z" transform="translate(-44.68 -50.85)"/><path class="cls-4" d="M330.63,142.21a86.94,86.94,0,0,1,10.81-3c1.83-.39,3.67-.74,5.52-1a37.57,37.57,0,0,1,5.61-.46c-1.84.38-3.65.83-5.47,1.23l-5.45,1.21C338,141,334.35,141.72,330.63,142.21Z" transform="translate(-44.68 -50.85)"/><path class="cls-4" d="M347.38,134.4c-1.78,1.12-3.6,2.06-5.38,3.06-.89.48-1.76,1-2.62,1.54a10.53,10.53,0,0,0-2.38,1.9,6,6,0,0,1,1.91-2.53,15.83,15.83,0,0,1,2.61-1.78A20.13,20.13,0,0,1,347.38,134.4Z" transform="translate(-44.68 -50.85)"/><path class="cls-4" d="M271.82,160.9a58.53,58.53,0,0,1,6.33-5,56.48,56.48,0,0,1,6.92-4.21,66.16,66.16,0,0,1-13.25,9.25Z" transform="translate(-44.68 -50.85)"/><path class="cls-4" d="M269.44,166.27a72.94,72.94,0,0,1,7.29-5.47,70.63,70.63,0,0,1,7.84-4.65,75.41,75.41,0,0,1-7.29,5.48A74.09,74.09,0,0,1,269.44,166.27Z" transform="translate(-44.68 -50.85)"/><path class="cls-4" d="M246.75,175.21c4.17.2,8.33.5,12.49.81l12.47,1,12.45,1.1c2.08.2,4.15.38,6.23.54s4.15.37,6.24.36a100.57,100.57,0,0,1-12.52-.13c-4.17-.22-8.33-.56-12.49-.88s-8.3-.76-12.45-1.23S250.88,175.82,246.75,175.21Z" transform="translate(-44.68 -50.85)"/><path class="cls-14" d="M270.9,119.48a8.43,8.43,0,0,0-1.81,3.09,6.57,6.57,0,0,0,.53,4c.52,1.26,1.23,2.45,1.68,3.75a10.4,10.4,0,0,1-.55,7.93" transform="translate(-44.68 -50.85)"/><path class="cls-6" d="M270.09,137.87a.75.75,0,0,0,.32,1,.74.74,0,0,0,1-.31.76.76,0,0,0-.32-1A.75.75,0,0,0,270.09,137.87Z" transform="translate(-44.68 -50.85)"/><path class="cls-14" d="M279.59,118.91a41.83,41.83,0,0,1,2.71,10.25,38.74,38.74,0,0,1-.74,9.71" transform="translate(-44.68 -50.85)"/><path class="cls-6" d="M280.81,138.72a.75.75,0,1,0,.85-.63A.75.75,0,0,0,280.81,138.72Z" transform="translate(-44.68 -50.85)"/><path class="cls-4" d="M333.06,158.16a58.94,58.94,0,0,1-5-6.41,56.93,56.93,0,0,1-4.17-7,58.94,58.94,0,0,1,5,6.41A56.93,56.93,0,0,1,333.06,158.16Z" transform="translate(-44.68 -50.85)"/><path class="cls-4" d="M317.77,146.12q1.59,1.47,3.08,3c1,1,2,2.07,3,3a5,5,0,0,0,.72.61h0a.49.49,0,0,0-.16,0,.42.42,0,0,0-.25.2c-.07.17,0,.15,0,.15a.32.32,0,0,1,0-.06c-.05-.15-.08-.29-.15-.45a15.8,15.8,0,0,0-.91-1.85c-.71-1.21-1.46-2.43-2.21-3.66a22,22,0,0,1,2.86,3.24,11,11,0,0,1,1.14,1.91,5.37,5.37,0,0,1,.21.56s0,.12,0,.2a.84.84,0,0,1,0,.16v.1a1,1,0,0,1-.05.16.6.6,0,0,1-.36.28.58.58,0,0,1-.29,0,1.06,1.06,0,0,1-.25-.1,5.14,5.14,0,0,1-1-.74,33.6,33.6,0,0,1-2.88-3.23A37.94,37.94,0,0,1,317.77,146.12Z" transform="translate(-44.68 -50.85)"/><path class="cls-4" d="M330.66,159.44a12.09,12.09,0,0,1-2.07-3.1,12.57,12.57,0,0,1-1.18-3.55,14.1,14.1,0,0,1,3.25,6.65Z" transform="translate(-44.68 -50.85)"/><path class="cls-4" d="M257.4,111.86l-3.91,2-2.59,1.32V140.5l2.59,3.48v12.76L247,163.26c-.14,2.05-.26,4.06-.34,5.88l10.2-10.2a1.75,1.75,0,0,0,.37-.57l.09-.2a.14.14,0,0,1,0-.06s0-.05,0-.08a3,3,0,0,0,.06-.32s0-.08,0-.12V144.46l3.42-4V110.12Z" transform="translate(-44.68 -50.85)"/><path class="cls-6" d="M253.44,113.9c.13,2.08.23,4.17.28,6.25s.11,4.17.13,6.25c0,4.17,0,8.33-.13,12.5l-.12-.28,2.9,3.22h-.37c1.14-1.07,2.27-2.15,3.44-3.19-1,1.21-2,2.37-3.07,3.55l-.17.2-.2-.2-3.1-3-.11-.11v-.17c-.08-4.17-.07-8.34,0-12.5,0-2.09.11-4.17.19-6.25S253.29,116,253.44,113.9Z" transform="translate(-44.68 -50.85)"/><path class="cls-4" d="M294.79,145.84l4-3.7L302,113.06l-3.19-.79-3.82-.94-2.77-.68L288.93,141,291,144.6l-1.52,12.57a1.28,1.28,0,0,0,0,.34v0a.07.07,0,0,0,0,0,2,2,0,0,0,.62,1.31l8.41,7.76c.19-1.53.39-3.14.59-4.79l-5.62-5.19Z" transform="translate(-44.68 -50.85)"/><path class="cls-6" d="M299.94,113.4c-.07,2.3-.16,4.6-.31,6.9s-.29,4.6-.47,6.89c-.37,4.59-.8,9.17-1.32,13.74l0,.18-.13.09L294,144.1l-.24.18-.14-.24c-.85-1.46-1.72-2.91-2.53-4.39,1,1.35,2,2.73,3,4.11l-.38-.06,3.54-3.11-.14.27c.3-4.59.71-9.18,1.17-13.75.23-2.29.5-4.58.79-6.87S299.59,115.68,299.94,113.4Z" transform="translate(-44.68 -50.85)"/><path class="cls-12" d="M327.45,158.76c-9.75,2.1-19.19,4-25.67,4.86-.74,1.4-2.32,4.34-3.73,6.76-1.25,2.12-2.37,3.84-2.72,3.81-.86-.08.28-3.26.38-3.56-.25.35-3.53,5.06-4,4.9s1.86-5.36,2-5.66c-.28.28-4.91,4.88-5.38,4.59s2.76-5.52,3-5.83c-.26.19-4.5,3.35-4.82,3.14s4.79-8.74,4.79-8.74-4.31-.38-4.48-.79,9.1-5.84,9.6-6.13h0l2.45-1,1.18-.48,16.59-6.76C317.94,150.19,324.23,155.91,327.45,158.76Z" transform="translate(-44.68 -50.85)"/><path class="cls-12" d="M296.34,156.1h0s0,0,0,0Z" transform="translate(-44.68 -50.85)"/></g></g></svg>