<?xml version="1.0" encoding="utf-8"?>
<!-- Generator: Adobe Illustrator 24.2.3, SVG Export Plug-In . SVG Version: 6.00 Build 0)  -->
<svg version="1.1" id="Layer_1" xmlns="http://www.w3.org/2000/svg" xmlns:xlink="http://www.w3.org/1999/xlink" x="0px" y="0px"
	 viewBox="0 0 200 200" style="enable-background:new 0 0 200 200;" xml:space="preserve">
<style type="text/css">
	.st0{fill:#C0B399;}
	.st1{fill:#FFFFFF;}
	.st2{fill:#462B17;}
	.st3{fill:#B0E2F1;}
	.st4{fill:#F6D436;}
	.st5{fill:#794833;}
	.st6{fill:#FDFAF3;}
</style>
<g>
	<path class="st0" d="M44.7,158.1c0,4.4-0.3,8.9,0.9,13.2c2.9,10.4,11.6,16.7,21.7,18.3c0.9,0.1,1.8,0.3,2.8,0.3c0.6,0,1,0,1.6,0
		c12.3,0,24.6,0,36.9,0c13.2,0,31.8,3.2,43.1-4.5c13.9-9.4,11-27.8,11-42.5c0-17.1,0-34.1,0-51.3c0-6.3,0.6-12.7-1.5-18.8
		c-3.4-9.5-10.5-13.9-18.9-15.8c0-2.6,0-5.3,0-8.1c6-11,0-26.8-13-30.8c-7.9-2.5-17.6-1-25.6-1c-7.8,0-17-1.3-24.6,0.9
		C65.5,21.7,58.9,38,65,49.3c0,2.6,0,5.4,0,8.1C54.9,59.7,46.6,66,45,78.1c-0.9,6.4-0.3,13.3-0.3,19.8C44.7,118,44.7,138,44.7,158.1
		z"/>
	<path class="st1" d="M37.3,150.8c0,4.4-0.3,8.9,0.9,13.2c2.9,10.4,11.6,16.7,21.7,18.3c0.9,0.1,1.8,0.3,2.8,0.3c0.6,0,1,0,1.6,0
		c12.3,0,24.6,0,36.9,0c13.2,0,31.8,3.2,43.1-4.5c13.9-9.4,11-27.8,11-42.5c0-17.1,0-34.1,0-51.3c0-6.3,0.6-12.7-1.5-18.8
		c-3.4-9.5-10.5-13.9-18.9-15.8c0-2.6,0-5.3,0-8.1c6-11,0-26.8-13-30.8c-7.9-2.5-17.6-1-25.6-1c-7.8,0-17-1.3-24.6,0.9
		c-13.5,3.7-20.1,19.9-13.9,31.2c0,2.6,0,5.4,0,8.1c-10.1,2.3-18.5,8.6-20.1,20.8c-0.9,6.4-0.3,13.3-0.3,19.8
		C37.3,110.6,37.3,130.7,37.3,150.8z"/>
	<g>
		<g>
			<g>
				<g>
					<path class="st1" d="M109.6,64.2h-6.4v-6.3c0-0.1-0.1-0.3-0.3-0.3H89.5c-0.1,0-0.3,0.1-0.3,0.3v6.3h-6.4v-6.3
						c0-3.7,2.9-6.6,6.6-6.6h13.3c3.7,0,6.6,2.9,6.6,6.6v6.3H109.6z"/>
					<path class="st2" d="M111.6,66.3h-10.5v-6.4h-9.7v6.4H80.9v-8.3c0-4.8,4-8.6,8.6-8.6h13.3c4.8,0,8.6,4,8.6,8.6v8.3H111.6z
						 M105.2,62.2h2.2v-4.2c0-2.5-2.1-4.5-4.5-4.5H89.5c-2.5,0-4.5,2.1-4.5,4.5v4.2h2.2v-4.2c0-1.3,1-2.3,2.3-2.3h13.3
						c1.3,0,2.3,1,2.3,2.3V62.2z"/>
				</g>
			</g>
			<g>
				<path class="st3" d="M129.9,169.5H62.7c-6.9,0-12.3-5.6-12.3-12.3V74.2c0-6.9,5.6-12.3,12.3-12.3h67.2c6.9,0,12.3,5.6,12.3,12.3
					v83.1C142.2,164.1,136.7,169.5,129.9,169.5z"/>
				<path class="st2" d="M129.9,171.6H62.7c-7.9,0-14.4-6.4-14.4-14.4V74.2c0-7.9,6.4-14.4,14.4-14.4h67.2c7.9,0,14.4,6.4,14.4,14.4
					v83.1C144.3,165.1,137.8,171.6,129.9,171.6z M62.7,63.9c-5.7,0-10.3,4.7-10.3,10.3v83.1c0,5.7,4.7,10.3,10.3,10.3h67.2
					c5.7,0,10.3-4.7,10.3-10.3V74.2c0-5.7-4.7-10.3-10.3-10.3H62.7z"/>
			</g>
			<g>
				<g>
					<path class="st4" d="M65.9,61.7h-3.2c-6.9,0-12.3,5.6-12.3,12.3v3.4C59,77.4,65.9,70.4,65.9,61.7z"/>
					<path class="st2" d="M50.4,79.4h-2.1v-5.3c0-7.9,6.4-14.4,14.4-14.4H68v2.1C68,71.5,60,79.4,50.4,79.4z M62.7,63.9
						c-5.7,0-10.3,4.7-10.3,10.3v1c5.9-0.9,10.4-5.6,11.3-11.3H62.7z"/>
				</g>
				<g>
					<path class="st4" d="M142.2,77.4v-3.2c0-6.9-5.6-12.3-12.3-12.3h-3.2C126.7,70.4,133.6,77.4,142.2,77.4z"/>
					<path class="st2" d="M144.3,79.4h-2.1c-9.7,0-17.6-7.9-17.6-17.6v-2.1h5.3c7.9,0,14.4,6.4,14.4,14.4V79.4z M128.9,63.9
						c0.9,5.9,5.6,10.4,11.3,11.3v-1c0-5.7-4.7-10.3-10.3-10.3H128.9z"/>
				</g>
				<g>
					<path class="st4" d="M50.4,154v3.2c0,6.9,5.6,12.3,12.3,12.3h3.2C65.9,161,59,154,50.4,154z"/>
					<path class="st2" d="M68,171.6h-5.3c-7.9,0-14.4-6.4-14.4-14.4V152h2.1c9.7,0,17.6,7.9,17.6,17.6V171.6z M52.4,156.2v1
						c0,5.7,4.7,10.3,10.3,10.3h1C62.8,161.8,58.3,157.1,52.4,156.2z"/>
				</g>
				<g>
					<path class="st4" d="M142.2,157.2V154c-8.6,0-15.5,7-15.5,15.5h3.2C136.7,169.5,142.2,164.1,142.2,157.2z"/>
					<path class="st2" d="M129.9,171.6h-5.3v-2.1c0-9.7,7.9-17.6,17.6-17.6h2.1v5.3C144.3,165.1,137.8,171.6,129.9,171.6z
						 M128.9,167.5h1c5.7,0,10.3-4.7,10.3-10.3v-1C134.3,157.1,129.8,161.8,128.9,167.5z"/>
				</g>
			</g>
			<g>
				<g>
					<g>
						<rect x="68.8" y="103.8" class="st5" width="13.3" height="65.8"/>
						<path class="st2" d="M84.2,171.6H66.8v-69.9h17.4V171.6z M70.9,167.5h9.2v-61.7h-9.2V167.5z"/>
					</g>
					<g>
						<path class="st5" d="M75.6,125.7L75.6,125.7c-3.7,0-6.7-2.9-6.7-6.7V61.7h13.3V119C82.2,122.8,79.2,125.7,75.6,125.7z"/>
						<path class="st2" d="M75.6,127.8c-4.8,0-8.8-4-8.8-8.8V59.7h17.4V119C84.2,123.8,80.3,127.8,75.6,127.8z M70.9,63.9v55.2
							c0,2.5,2.1,4.7,4.7,4.7c2.5,0,4.7-2.1,4.7-4.7V63.9H70.9z"/>
					</g>
					<g>
						<path class="st2" d="M75.6,118c-4.8,0-8.8-4-8.8-8.8v-4.4c0-4.8,4-8.8,8.8-8.8c4.8,0,8.8,4,8.8,8.8v4.4
							C84.2,114,80.3,118,75.6,118z M75.6,100.2c-2.5,0-4.7,2.1-4.7,4.7v4.4c0,2.5,2.1,4.7,4.7,4.7c2.5,0,4.7-2.1,4.7-4.7v-4.4
							C80.1,102.3,78.1,100.2,75.6,100.2z"/>
					</g>
					<g>
						<g>
							<path class="st2" d="M75.6,119.4L75.6,119.4c-0.7,0-1.5-0.6-1.5-1.5v-13.2c0-0.7,0.6-1.5,1.5-1.5l0,0c0.7,0,1.5,0.6,1.5,1.5
								V118C76.9,118.9,76.3,119.4,75.6,119.4z"/>
						</g>
					</g>
				</g>
				<g>
					<g>
						<rect x="110.4" y="122.5" class="st5" width="13.3" height="47"/>
						<path class="st2" d="M125.8,171.6h-17.4v-51.1h17.4V171.6z M112.5,167.5h9.2v-42.9h-9.2V167.5z"/>
					</g>
					<g>
						<path class="st5" d="M117,144.5L117,144.5c-3.7,0-6.7-2.9-6.7-6.7v-76h13.3v76C123.8,141.6,120.7,144.5,117,144.5z"/>
						<path class="st2" d="M117,146.5c-4.8,0-8.8-4-8.8-8.8V59.7h17.4v78.1C125.8,142.6,121.9,146.5,117,146.5z M112.5,63.9v74
							c0,2.5,2.1,4.7,4.7,4.7c2.5,0,4.7-2.1,4.7-4.7v-74H112.5z"/>
					</g>
					<g>
						<path class="st2" d="M117,136.7c-4.8,0-8.8-4-8.8-8.8v-4.4c0-4.8,4-8.8,8.8-8.8c4.8,0,8.8,4,8.8,8.8v4.4
							C125.8,132.8,121.9,136.7,117,136.7z M117,119c-2.5,0-4.7,2.1-4.7,4.7v4.4c0,2.5,2.1,4.7,4.7,4.7c2.5,0,4.7-2.1,4.7-4.7v-4.4
							C121.7,121.1,119.7,119,117,119z"/>
					</g>
					<g>
						<g>
							<path class="st2" d="M117,138.2L117,138.2c-0.7,0-1.5-0.6-1.5-1.5v-13.2c0-0.7,0.6-1.5,1.5-1.5l0,0c0.7,0,1.5,0.6,1.5,1.5
								v13.2C118.5,137.6,117.9,138.2,117,138.2z"/>
						</g>
					</g>
				</g>
			</g>
			<g>
				<g>
					<rect x="70.7" y="33.2" class="st1" width="5" height="28.7"/>
					<path class="st2" d="M77.8,63.9h-9.1V31.1h9.1V63.9z M72.8,59.7h0.9V35.2h-0.9V59.7z"/>
				</g>
				<g>
					<rect x="116.9" y="33.2" class="st1" width="5" height="28.7"/>
					<path class="st2" d="M123.9,63.9h-9.1V31.1h9.1V63.9z M118.9,59.7h0.9V35.2h-0.9V59.7z"/>
				</g>
			</g>
			<g>
				<g>
					<path class="st4" d="M122.2,36.8h-4.7c-1.2,0-2.1-0.9-2.1-2.1V32c0-0.1-0.1-0.3-0.3-0.3H77.5c-0.1,0-0.3,0.1-0.3,0.3v2.8
						c0,1.2-0.9,2.1-2.1,2.1h-4.7c-1.2,0-2.1-0.9-2.1-2.1V32c0-5,4.1-9.1,9.1-9.1h37.6c5,0,9.1,4.1,9.1,9.1v2.8
						C124.2,35.9,123.3,36.8,122.2,36.8z"/>
					<path class="st2" d="M122.2,38.9h-4.7c-2.2,0-4.1-1.9-4.1-4.1v-1H79.2v1c0,2.2-1.9,4.1-4.1,4.1h-4.7c-2.2,0-4.1-1.9-4.1-4.1V32
						c0-6.2,5-11.1,11.1-11.1h37.6c6.2,0,11.1,5,11.1,11.1v2.8C126.3,37.1,124.4,38.9,122.2,38.9z M77.5,29.6h37.6
						c1.3,0,2.3,1,2.3,2.3v2.8h4.7V32c0-3.8-3.2-7-7-7H77.5c-3.8,0-7,3.2-7,7v2.8h4.7V32C75.1,30.7,76.2,29.6,77.5,29.6z"/>
				</g>
			</g>
		</g>
		<path class="st6" d="M58,113.9L58,113.9c-1.2,0-2.1-0.9-2.1-2.1V85.3c0-1.2,0.9-2.1,2.1-2.1l0,0c1.2,0,2.1,0.9,2.1,2.1v26.5
			C60,113,59.2,113.9,58,113.9z"/>
		<path class="st6" d="M58,131.2L58,131.2c-1.2,0-2.1-0.9-2.1-2.1v-8.1c0-1.2,0.9-2.1,2.1-2.1l0,0c1.2,0,2.1,0.9,2.1,2.1v8.1
			C60,130.3,59.2,131.2,58,131.2z"/>
		<path class="st6" d="M90.2,68.3L90.2,68.3c0-1.2,0.9-2.1,2.1-2.1h8.1c1.2,0,2.1,0.9,2.1,2.1l0,0c0,1.2-0.9,2.1-2.1,2.1h-8.1
			C91.1,70.4,90.2,69.5,90.2,68.3z"/>
	</g>
</g>
</svg>
