<?xml version="1.0" encoding="utf-8"?>
<!-- Generator: Adobe Illustrator 24.2.3, SVG Export Plug-In . SVG Version: 6.00 Build 0)  -->
<svg version="1.1" id="Layer_1" xmlns="http://www.w3.org/2000/svg" xmlns:xlink="http://www.w3.org/1999/xlink" x="0px" y="0px"
	 viewBox="0 0 200 200" style="enable-background:new 0 0 200 200;" xml:space="preserve">
<style type="text/css">
	.st0{fill:#C0B399;}
	.st1{fill:#FFFFFF;}
	.st2{fill:#462B17;}
	.st3{fill:#B0E2F1;}
	.st4{fill:#FB796B;}
	.st5{fill:none;}
	.st6{fill:#A0D29D;}
	.st7{fill:#FDFAF3;}
</style>
<g>
	<path class="st0" d="M29.1,121.9c12,12,24,24,36,36c9.1,9.1,18.3,18.3,27.3,27.3c0.4,0.4,0.7,0.9,1.3,1.3c0.7,0.7,1.6,1.3,2.4,1.9
		c11.4,8.1,24.6,5.8,34.6-4.2c7.3-7.3,14.5-14.5,21.9-21.9c6.1-6.1,12.4-12,18.4-18.4c9.7-10.5,9-22.3,2.1-32.5
		c2.7-6.1,5.5-12.1,8.2-18.3c3.6-8.1,11.8-20.5,10.2-29.7c-2.2-12.9-18.1-16.6-28.5-21.3c-3.9-1.8-7.8-3.9-11.8-5.2
		c-0.3-0.1-0.4-0.1-0.7-0.1c0-2.8-0.3-5.5-0.7-8.2c-2.8-15-17.1-14.1-28.9-14.1c-9.3,0-23.4-2.4-30.9,4.5c-3.4,3.1-5.1,7.5-5.7,12.1
		c-5.7-0.4-11.5,1-16.9,5.5c-3.7,3.1-7.2,6.9-10.6,10.3C45.7,58.1,34,68.9,23.3,80.4c-8.8,9.4-10.3,23.2-1.9,33.6
		C23.7,116.8,26.4,119.4,29.1,121.9z"/>
	<path class="st1" d="M21.6,114.5c12,12,24,24,36,36c9.1,9.1,18.3,18.3,27.3,27.3c0.4,0.4,0.7,0.9,1.3,1.3c0.7,0.7,1.6,1.3,2.4,1.9
		c11.4,8.1,24.6,5.8,34.6-4.2c7.3-7.3,14.5-14.5,21.9-21.9c6.1-6.1,12.4-12,18.4-18.4c9.7-10.5,9-22.3,2.1-32.5
		c2.7-6.1,5.5-12.1,8.2-18.3c3.6-8.1,11.8-20.5,10.2-29.7c-2.2-12.9-18.1-16.6-28.5-21.3c-3.9-1.8-7.8-3.9-11.8-5.2
		c-0.3-0.1-0.4-0.1-0.7-0.1c0-2.8-0.3-5.5-0.7-8.2C139.4,6.1,125.1,7,113.3,7c-9.3,0-23.4-2.4-30.9,4.5c-3.4,3.1-5.1,7.5-5.7,12.1
		c-5.7-0.4-11.5,1-16.9,5.5c-3.7,3.1-7.2,6.9-10.6,10.3C38.2,50.6,26.6,61.4,15.8,72.9c-8.8,9.4-10.3,23.2-1.9,33.6
		C16.2,109.4,18.9,111.9,21.6,114.5z"/>
	<g>
		<g>
			<g>
				<g>
					<path class="st1" d="M129.3,24.1v74c0,2.1-1.6,3.7-3.7,3.7H93.8c-2.1,0-3.7-1.6-3.7-3.7v-74c0-2.1,1.6-3.7,3.7-3.7h31.6
						C127.7,20.4,129.3,22,129.3,24.1z"/>
					<path class="st2" d="M125.6,104H93.8c-3.3,0-5.8-2.7-5.8-5.8v-74c0-3.3,2.7-5.8,5.8-5.8h31.6c3.3,0,5.8,2.7,5.8,5.8v74
						C131.4,101.3,128.7,104,125.6,104z M93.8,22.5c-0.9,0-1.6,0.7-1.6,1.6v74c0,0.9,0.7,1.6,1.6,1.6h31.6c0.9,0,1.6-0.7,1.6-1.6
						v-74c0-0.9-0.7-1.6-1.6-1.6H93.8z"/>
				</g>
				<g>
					<path class="st3" d="M105.7,29.5v40.9c0,1.3-1,2.5-2.5,2.5h-3.4c-1.3,0-2.5-1-2.5-2.5V29.5c0-1.3,1-2.5,2.5-2.5h3.4
						C104.6,27,105.7,28,105.7,29.5z"/>
					<path class="st2" d="M103.1,74.9h-3.4c-2.5,0-4.6-2.1-4.6-4.6V29.5c0-2.5,2.1-4.6,4.6-4.6h3.4c2.5,0,4.6,2.1,4.6,4.6v40.9
						C107.8,72.9,105.7,74.9,103.1,74.9z M99.7,29c-0.3,0-0.4,0.1-0.4,0.4v40.9c0,0.3,0.1,0.4,0.4,0.4h3.4c0.3,0,0.4-0.1,0.4-0.4
						V29.5c0-0.3-0.1-0.4-0.4-0.4H99.7z"/>
				</g>
				<g>
					<path class="st4" d="M123.9,61.7V70c0,1.3-1,2.4-2.4,2.4h-8.2c-1.3,0-2.4-1-2.4-2.4v-8.2c0-1.3,1-2.4,2.4-2.4h8.2
						C122.7,59.2,123.9,60.4,123.9,61.7z"/>
					<path class="st2" d="M121.4,74.4h-8.2c-2.5,0-4.5-2.1-4.5-4.5v-8.2c0-2.5,2.1-4.5,4.5-4.5h8.2c2.5,0,4.5,2.1,4.5,4.5V70
						C126,72.3,123.9,74.4,121.4,74.4z M113.3,61.3c-0.1,0-0.3,0.1-0.3,0.3v8.2c0,0.1,0.1,0.3,0.3,0.3h8.2c0.1,0,0.3-0.1,0.3-0.3
						v-8.2c0-0.1-0.1-0.3-0.3-0.3H113.3z"/>
				</g>
				<g>
					<line class="st5" x1="114.1" y1="53.2" x2="114.1" y2="27"/>
					<rect x="112" y="27" class="st2" width="4.2" height="26.2"/>
				</g>
				<g>
					<line class="st5" x1="120.6" y1="53.2" x2="120.6" y2="27"/>
					<rect x="118.5" y="27" class="st2" width="4.2" height="26.2"/>
				</g>
			</g>
			<g>
				<g>
					<path class="st1" d="M170.7,60.4l-30.4,67.4c-0.9,1.9-3.1,2.7-4.9,1.9l-28.9-13c-1.9-0.9-2.7-3.1-1.9-4.9l30.4-67.4
						c0.9-1.9,3.1-2.7,4.9-1.9l28.9,13C170.7,56.2,171.4,58.4,170.7,60.4z"/>
					<path class="st2" d="M136.8,132c-0.7,0-1.6-0.1-2.4-0.4l-28.9-13c-3-1.3-4.3-4.8-3-7.8l30.4-67.4c1.3-3,4.8-4.3,7.8-3l28.9,13
						c3,1.3,4.3,4.8,3,7.8l-30.4,67.4c-0.6,1.5-1.8,2.5-3.3,3.1C138.2,132,137.4,132,136.8,132z M138.3,44c-0.6,0-1.2,0.3-1.5,1
						l-30.4,67.4c-0.4,0.9,0,1.8,0.9,2.2l28.9,13c0.4,0.1,0.9,0.1,1.3,0c0.4-0.1,0.7-0.4,0.9-0.9l30.4-67.4c0.4-0.9,0-1.8-0.9-2.2
						l-28.9-13C138.8,44.2,138.6,44,138.3,44z"/>
				</g>
				<g>
					<path class="st3" d="M146.9,55.4l-16.8,37.3c-0.6,1.2-2.1,1.8-3.3,1.2l-3.1-1.5c-1.2-0.6-1.8-2.1-1.2-3.3l16.8-37.3
						c0.6-1.2,2.1-1.8,3.3-1.2l3.1,1.5C146.9,52.7,147.5,54.2,146.9,55.4z"/>
					<path class="st2" d="M127.8,96.3c-0.6,0-1.3-0.1-1.9-0.4l-3.1-1.5c-2.2-1-3.3-3.7-2.2-6.1l16.6-37.2c1-2.2,3.7-3.3,6.1-2.2
						l3.1,1.5c2.2,1,3.3,3.7,2.2,6.1l-16.8,37.3c-0.4,1-1.3,1.9-2.5,2.4C128.9,96.2,128.3,96.3,127.8,96.3z M141.3,52.6L141.3,52.6
						c-0.1,0-0.3,0.1-0.3,0.3l-16.8,37.3c-0.1,0.1,0,0.4,0.1,0.6l3.1,1.5c0.1,0,0.3,0,0.3,0s0.1-0.1,0.3-0.1l16.8-37.5
						c0.1-0.1,0-0.4-0.1-0.6l-3.1-1.5C141.5,52.6,141.5,52.6,141.3,52.6z"/>
				</g>
				<g>
					<path class="st4" d="M150.3,92.3l-3.4,7.5c-0.6,1.2-1.9,1.8-3.3,1.2l-7.5-3.4c-1.2-0.6-1.8-1.9-1.2-3.3l3.4-7.5
						c0.6-1.2,1.9-1.8,3.3-1.2l7.5,3.4C150.3,89.6,150.8,91.1,150.3,92.3z"/>
					<path class="st2" d="M144.6,103.4c-0.6,0-1.3-0.1-1.9-0.4l-7.5-3.4c-1-0.4-1.9-1.3-2.4-2.5c-0.4-1.2-0.4-2.4,0.1-3.4l3.4-7.5
						c0.4-1,1.3-1.9,2.5-2.4c1.2-0.4,2.4-0.4,3.4,0.1l7.5,3.4c1,0.4,1.9,1.3,2.4,2.5c0.4,1.2,0.4,2.4-0.1,3.4l-3.4,7.5
						c-0.4,1-1.3,1.9-2.5,2.4C145.7,103.2,145.2,103.4,144.6,103.4z M140.6,87.6C140.4,87.6,140.4,87.6,140.6,87.6
						c-0.1,0-0.3,0.1-0.3,0.1l-3.4,7.5c0,0.1,0,0.1,0,0.3l0.1,0.1l7.5,3.4c0.1,0,0.1,0,0.3,0l0.1-0.1l3.4-7.5c0-0.1,0-0.1,0-0.3
						l-0.1-0.1L140.6,87.6L140.6,87.6z"/>
				</g>
				<g>
					<line class="st5" x1="144.8" y1="80.6" x2="155.6" y2="56.6"/>
					
						<rect x="137" y="66.6" transform="matrix(0.4114 -0.9114 0.9114 0.4114 25.7544 177.239)" class="st2" width="26.2" height="4.2"/>
				</g>
				<g>
					<line class="st5" x1="150.8" y1="83.3" x2="161.6" y2="59.3"/>
					
						<rect x="143" y="69.3" transform="matrix(0.4115 -0.9114 0.9114 0.4115 26.8224 184.2775)" class="st2" width="26.2" height="4.2"/>
				</g>
			</g>
			<g>
				<g>
					<path class="st6" d="M154.5,126.6l-43,43c-4.3,4.3-11.5,4.3-15.9,0L24.8,98.9c-4.3-4.3-4.3-11.5,0-15.9l43-43
						c4.3-4.3,11.5-4.3,15.9,0l70.9,70.9C158.9,115.1,158.9,122.2,154.5,126.6z"/>
					<path class="st2" d="M103.4,175c-3.6,0-6.9-1.3-9.4-3.9l-70.7-70.9C18,95,18,86.6,23.3,81.3l43-43c2.5-2.5,5.8-3.9,9.4-3.9
						c3.6,0,6.9,1.3,9.4,3.9l70.9,70.9c5.2,5.2,5.2,13.6,0,18.9l-43,43C110.3,173.6,107,175,103.4,175z M75.7,38.6
						c-2.4,0-4.6,0.9-6.4,2.7l-43,43.2c-3.6,3.6-3.6,9.3,0,12.9L97,168.1c1.6,1.6,4,2.7,6.4,2.7c2.4,0,4.8-0.9,6.4-2.7l43-43
						c3.6-3.6,3.6-9.3,0-12.9L82.1,41.3C80.5,39.7,78.1,38.6,75.7,38.6z"/>
				</g>
				<g>
					<g>
						<path class="st2" d="M83,125.4c-7,0-13.9-2.7-19.3-7.9c-10.6-10.6-10.6-27.9,0-38.5s27.9-10.6,38.5,0
							c10.6,10.6,10.6,27.9,0,38.5C97,122.8,89.9,125.4,83,125.4z M83,75.2c-5.8,0-11.8,2.2-16.3,6.7c-9,9-9,23.7,0,32.7
							s23.7,9,32.7,0s9-23.7,0-32.7C94.9,77.4,88.9,75.2,83,75.2z"/>
					</g>
					<g>
						<g>
							<path class="st2" d="M59.4,100.8l-1.2-4c5.5-1.8,10.5-4.8,14.7-8.8c4.2-4.2,7.2-9.1,8.8-14.7l4,1.2
								c-1.9,6.3-5.2,11.7-9.9,16.3C71.1,95.6,65.7,98.9,59.4,100.8z"/>
						</g>
						<g>
							<path class="st2" d="M73.9,123.3l-0.6-4.2c7.8-1.2,14.8-4.8,20.4-10.3c5.5-5.5,9.1-12.6,10.3-20.4l4.2,0.6
								c-1.3,8.7-5.2,16.5-11.5,22.8C90.4,118,82.6,121.9,73.9,123.3z"/>
						</g>
						<g>
							<path class="st2" d="M61.8,113.4l-0.4-4.2c8.4-0.7,16.3-4.5,22.2-10.5c6-6,9.6-13.8,10.5-22.2l4.2,0.4
								c-0.9,9.4-4.9,18.1-11.7,24.9C79.9,108.3,71.1,112.5,61.8,113.4z"/>
						</g>
					</g>
					<g>
						<path class="st2" d="M94.4,120.4c-6.6,0-15-4-22.2-11.4c-10.8-10.8-14.5-24-8.4-30.1l0,0c6.1-6.1,19.3-2.4,30.1,8.4
							c4.9,4.9,8.7,10.8,10.3,16.2c1.8,5.8,1.2,10.9-1.9,13.9C100.3,119.4,97.6,120.4,94.4,120.4z M66.7,81.9
							c-3.7,3.7-1.3,14.4,8.4,24.3c9.7,9.7,20.4,12.3,24.3,8.4c1.9-1.9,2.2-5.4,0.9-9.7c-1.5-4.8-4.8-9.9-9.3-14.5
							C81.1,80.6,70.6,78,66.7,81.9L66.7,81.9z"/>
					</g>
					<g>
						
							<rect x="81" y="73.1" transform="matrix(0.7071 -0.7071 0.7071 0.7071 -45.1283 87.5246)" class="st2" width="4.2" height="50.3"/>
					</g>
				</g>
				<g>
					<path class="st2" d="M96.4,143.1l1.2,1.2c1.5,1.5,1.6,3.1,0.1,4.6l-0.7,0.7l3.6,3.6l-1.5,1.5l-9.4-9.4l2.2-2.2
						C93.2,141.6,94.9,141.6,96.4,143.1z M92.5,145l3.1,3.1l0.7-0.7c0.4-0.4,0.4-0.9-0.1-1.6l-1.5-1.5c-0.7-0.7-1.2-0.6-1.6-0.1
						L92.5,145z"/>
					<path class="st2" d="M109,144.9l-1.5,1.5l-1.9-1.5l-1.8,1.8l1.5,1.9l-1.3,1.3l-7.9-11.1l2.2-2.2L109,144.9z M102.5,145.3
						l1.5-1.5l-5.5-4L102.5,145.3z"/>
					<path class="st2" d="M102.1,132.6c1.5-1.5,3-1.3,4.6,0.1l0.3,0.3l-1.3,1.3l-0.4-0.4c-0.7-0.7-1.2-0.6-1.6-0.1
						c-0.4,0.4-0.4,1,0.1,1.6c1.9,1.9,5.2-0.6,7.9,2.1c1.5,1.5,1.6,3.1,0.1,4.6c-1.5,1.5-3.1,1.3-4.6-0.1l-0.6-0.6l1.3-1.3l0.7,0.7
						c0.7,0.7,1.2,0.6,1.6,0.1c0.4-0.4,0.6-1-0.1-1.6c-1.9-1.9-5.2,0.6-7.9-2.1C100.7,135.6,100.6,134.1,102.1,132.6z"/>
					<path class="st2" d="M107.2,127.5c1.5-1.5,3-1.3,4.6,0.1l0.3,0.3l-1.3,1.3l-0.4-0.4c-0.7-0.7-1.2-0.6-1.6-0.1
						c-0.4,0.4-0.4,1,0.1,1.6c1.9,1.9,5.2-0.6,7.9,2.1c1.5,1.5,1.6,3.1,0.1,4.6c-1.5,1.5-3.1,1.3-4.6-0.1l-0.6-0.6l1.3-1.3l0.7,0.7
						c0.7,0.7,1.2,0.6,1.6,0.1c0.4-0.4,0.6-1-0.1-1.6c-1.9-1.9-5.2,0.6-7.9-2.1C105.8,130.5,105.7,129,107.2,127.5z"/>
					<path class="st2" d="M117.1,122.4l1.2,1.2c1.5,1.5,1.6,3.1,0.1,4.6l-0.7,0.7l3.6,3.6l-1.5,1.5l-9.4-9.4l2.2-2.2
						C113.9,120.9,115.6,120.9,117.1,122.4z M113.2,124.3l3.1,3.1l0.7-0.7c0.4-0.4,0.4-0.9-0.1-1.6l-1.5-1.5
						c-0.7-0.7-1.2-0.6-1.6-0.1L113.2,124.3z"/>
					<path class="st2" d="M117.7,121.8c-1.5-1.5-1.6-3.1-0.1-4.6c1.5-1.5,3.1-1.3,4.6,0.1l4.9,4.9c1.5,1.5,1.6,3.1,0.1,4.6
						c-1.5,1.5-3.1,1.3-4.6-0.1L117.7,121.8z M124.1,125.2c0.7,0.7,1.2,0.6,1.6,0.1c0.4-0.4,0.4-1-0.1-1.6l-5.1-5.1
						c-0.7-0.7-1.2-0.6-1.6-0.1c-0.4,0.4-0.4,1,0.1,1.6L124.1,125.2z"/>
					<path class="st2" d="M133.4,120.3c-0.3-0.1-0.6-0.3-1.3-1l-1.5-1.5c-0.9-0.9-1.5-0.9-2.2-0.3l-0.4,0.4l3.9,3.9l-1.5,1.5
						l-9.4-9.4l2.2-2.2c1.5-1.5,3-1.5,4.3,0l0.7,0.7c1,1,1.3,1.9,0.9,2.8c1-0.4,1.9,0,3,1l1.5,1.5c0.4,0.4,0.7,0.7,1.3,1
						L133.4,120.3z M123.6,113.9l2.8,2.8l0.6-0.6c0.6-0.6,0.6-1.2-0.1-1.9l-0.9-0.9c-0.7-0.7-1.2-0.7-1.8-0.1L123.6,113.9z"/>
					<path class="st2" d="M125.9,108.9l4.6-4.6l1.3,1.3l-1.5,1.5l8.1,8.1l-1.5,1.5l-8.1-8.1l-1.5,1.5L125.9,108.9z"/>
				</g>
			</g>
		</g>
		<path class="st7" d="M46.3,108.6L46.3,108.6c0.7-0.7,2.1-0.7,3,0l24.9,24.9c0.7,0.7,0.7,2.1,0,3l0,0c-0.7,0.7-2.1,0.7-3,0
			l-24.9-24.9C45.4,110.7,45.4,109.4,46.3,108.6z"/>
		<path class="st7" d="M33.3,95.6L33.3,95.6c0.7-0.7,2.1-0.7,3,0l6.7,6.7c0.7,0.7,0.7,2.1,0,3l0,0c-0.7,0.7-2.1,0.7-3,0l-6.7-6.7
			C32.4,97.7,32.4,96.5,33.3,95.6z"/>
	</g>
</g>
</svg>
