<?xml version="1.0" encoding="utf-8"?>
<!-- Generator: Adobe Illustrator 24.2.3, SVG Export Plug-In . SVG Version: 6.00 Build 0)  -->
<svg version="1.1" id="Layer_1" xmlns="http://www.w3.org/2000/svg" xmlns:xlink="http://www.w3.org/1999/xlink" x="0px" y="0px"
	 viewBox="0 0 200 200" style="enable-background:new 0 0 200 200;" xml:space="preserve">
<style type="text/css">
	.st0{fill:#C0B399;}
	.st1{fill:#FFFFFF;}
	.st2{fill:#A0D29D;}
	.st3{fill:#462B17;}
	.st4{fill:#B0E2F1;}
	.st5{fill:#FB796B;}
	.st6{fill:#FFFDFB;}
	.st7{fill:#FDFAF3;}
</style>
<g>
	<path class="st0" d="M193,157.7c0-1.7-0.4-3.7-1.6-5.6c-0.3-0.7-0.8-1.3-1.2-1.9c-8.6-13.4-17.3-26.9-25.9-40.3
		c-4.8-7.5-9.7-15.7-19.6-14.7c5.9-12.2,9.7-24.8,5.1-39.3c-5.6-17.6-20.8-31-39.2-33.8c-20.7-3.2-41.8,7.4-51,26.5
		c-4.7,9.6-6.1,20.4-4.1,30.8c1.4,7.5,5,14.4,8.8,21c-3.8,1.3-7.7,2.6-11.5,3.9c-12.4-4.7-31.7-13.7-38.1,2.7
		c-2.7,7,0.2,12.6,3.9,18.4c3.9,6,7.7,12.1,11.7,18.1c4,6.3,8.1,12.6,12.1,18.8c3.3,5.1,6.1,9.4,12.1,11.8
		c9.7,3.7,20.3,8.1,30.4,10.2c5.4,1.1,2.2,0.3,0.9,0.2c2.2,0.3,4.1,0.4,6.3-0.1c0.5-0.1,1.1-0.4,1.6-0.5c3.4-1,6.6-2.3,9.9-3.4
		c5.4-1.9,10.9-3.7,16.3-5.6c6,2.1,12,4,18,6.1c2.8,1,6,2.6,8.9,3c1.6,0.2-2.3-0.9-2.1-0.9c0.4,0,3.3,0.9,4.9,1.3
		c0.8-0.1,4.8,0.1,5.9-0.1c7.3-1.9,14.6-5,21.7-7.4c3-1,6.4-1.9,9.1-3.6C192.2,169.8,194,163.8,193,157.7z"/>
	<path class="st1" d="M186.1,150.9c0-1.7-0.4-3.7-1.6-5.6c-0.3-0.7-0.8-1.3-1.2-1.9c-8.6-13.4-17.3-26.9-25.9-40.3
		c-4.8-7.5-9.7-15.7-19.6-14.7c5.9-12.2,9.7-24.8,5.1-39.3c-5.6-17.6-20.8-31-39.2-33.8c-20.7-3-41.8,7.5-51.1,26.6
		c-4.5,9.5-6,20.1-3.9,30.7c1.4,7.5,5,14.4,8.8,21c-3.8,1.3-7.7,2.6-11.5,3.9c-12.4-4.7-31.7-13.7-38.1,2.7
		c-2.7,7,0.2,12.6,3.9,18.4c3.9,6,7.7,12.1,11.7,18.1c4,6.3,8.1,12.6,12.1,18.8c3.3,5.1,6.1,9.4,12.1,11.8
		c9.7,3.7,20.3,8.1,30.4,10.2c5.4,1.1,2.2,0.3,0.9,0.2c2.2,0.3,4.1,0.4,6.3-0.1c0.5-0.1,1.1-0.4,1.6-0.5c3.4-1,6.6-2.3,9.9-3.4
		c5.4-1.9,10.9-3.7,16.3-5.6c6,2.1,12,4,18,6.1c2.8,1,6,2.6,8.9,3c1.6,0.2-2.3-0.9-2.1-0.9c0.4,0,3.3,0.9,4.9,1.3
		c0.8-0.1,4.8,0.1,5.9-0.1c7.3-1.9,14.6-5,21.7-7.4c3-1,6.4-1.9,9.1-3.6C185.3,163,187,156.9,186.1,150.9z"/>
	<g>
		<g>
			<g>
				<g>
					<g>
						<path class="st2" d="M80.4,165.7l-29.7-10.1c-0.8-0.2-1.3-0.8-1.7-1.4L19.3,108c-1.7-2.7,0.9-6,3.9-5l22.5,7.7l35,54.6
							C81,165.5,80.7,165.7,80.4,165.7z"/>
						<path class="st3" d="M80.5,167.7c-0.2,0-0.4,0-0.8-0.1l0,0L50,157.4c-1.1-0.4-2.1-1.2-2.7-2.2L17.6,109
							c-1.2-2-1.1-4.4,0.3-6.1c1.4-1.7,3.7-2.5,5.9-1.7l23.2,8l0.3,0.5l35.1,54.6c0.5,0.8,0.4,1.9-0.1,2.6
							C81.8,167.3,81.2,167.7,80.5,167.7z M22,104.7c-0.5,0-1,0.4-1.1,0.5c-0.1,0.2-0.5,0.9-0.1,1.6l29.7,46.3
							c0.2,0.2,0.4,0.4,0.8,0.5l25.3,8.6l-32.1-50.1l-21.9-7.4C22.4,104.7,22.3,104.7,22,104.7z"/>
					</g>
					<g>
						<path class="st2" d="M143.6,165.6l-30.7-10.5l-35-54.3c-0.2-0.3,0.1-0.7,0.4-0.5l30.6,10.5l35,54.5
							C144.1,165.4,143.9,165.7,143.6,165.6z"/>
						<path class="st4" d="M130.5,144.1l-12-18.6c-2.5-2.1-4.4-3.8-5-4.4c-2.6-1.3-5.9-1.5-7.7-0.4c-1,0.5-1.5,1.5-1.6,2.8
							c-0.2,6-4.6,8.3-6,8.9l7.2,11.2c0.8-2.8,2.8-6.2,7.1-7C117,135.7,125.4,140.7,130.5,144.1z"/>
						<path class="st3" d="M143.7,167.6c-0.2,0-0.4,0-0.8-0.1l0,0l-31.4-10.7l-0.3-0.5l-35-54.3c-0.5-0.9-0.4-2,0.1-2.7
							c0.7-0.8,1.6-1.1,2.6-0.8l31.3,10.7l0.3,0.5l35,54.5c0.5,0.8,0.4,1.9-0.1,2.6C145.1,167.2,144.5,167.6,143.7,167.6z
							 M142.4,166.1L142.4,166.1L142.4,166.1z M144.2,163.7L144.2,163.7L144.2,163.7z M114.2,153.5l25.7,8.7l-32.1-50.1l-25.7-8.8
							L114.2,153.5z"/>
					</g>
					<g>
						<path class="st2" d="M81.6,165.8l31.3-10.7l-35.4-55c-0.1-0.1-0.3-0.2-0.4-0.1l-31.4,10.7l35.3,55
							C81.2,165.8,81.4,165.9,81.6,165.8z"/>
						<path class="st4" d="M98.2,132.3c-0.3,0.1-0.4,0.2-0.5,0.2l-0.9,0.2l-0.8-0.4c-0.5-0.3-1.4-0.7-2.4-1.1
							c-3-1.3-7.6-3.4-12.5-8.3c-3.6-3.6-9.5-3.2-12.4-1.5c-0.9,0.5-1.4,1.1-1.3,1.5c0.3,1.2,0.2,2.5,0,3.7c3,1.2,8.9,4,12.1,9.4
							c3.2,5.2,17.8,9.9,25.7,8.5c0-0.2,0.1-0.5,0.2-0.8L98.2,132.3z"/>
						<path class="st3" d="M81.4,167.8c-0.8,0-1.5-0.4-2-1.1l-36.7-57.1l33.7-11.4c1-0.3,2.2,0,2.7,1l36.7,57.2l-33.7,11.4
							C81.9,167.8,81.7,167.8,81.4,167.8z M82.7,164.6L82.7,164.6L82.7,164.6z M81,164L81,164L81,164z M48.7,111.7l33.3,52l27.9-9.5
							l-33.3-52L48.7,111.7z M75.8,101.1L75.8,101.1L75.8,101.1z"/>
					</g>
					<g>
						<path class="st2" d="M145,165.8l27.1-9.3c2.1-0.7,2.9-3.2,1.7-5l-31.8-49.4c-0.9-1.3-2.4-1.9-3.9-1.4l-29.2,9.9l35.3,54.9
							C144.5,165.8,144.7,165.9,145,165.8z"/>
						<path class="st4" d="M130.5,144.1c1.3,0.9,2.5,1.7,3.3,2.3c0.5-0.2,1.7-0.9,2.9-2.9c1.5-2.4,0.1-5.8-0.7-7.1
							c-6-2-13-7.1-17.5-10.9L130.5,144.1z"/>
						<path class="st3" d="M144.8,167.8c-0.9,0-1.6-0.4-2.2-1.2l-36.6-57l31.5-10.8c2.3-0.8,4.8,0.1,6.2,2.2l31.8,49.4
							c0.9,1.4,1.1,3,0.5,4.6c-0.5,1.5-1.7,2.7-3.3,3.3l-27.1,9.3C145.3,167.7,145,167.8,144.8,167.8z M112,111.7l33.3,52l26.1-8.9
							c0.5-0.2,0.8-0.7,0.9-0.9c0.1-0.2,0.2-0.8-0.1-1.2l-31.8-49.4c-0.3-0.5-1-0.8-1.6-0.5L112,111.7z"/>
					</g>
				</g>
				<path class="st3" d="M159.1,127.6l-2.9-2.5c-0.1,0.1-7.8,8.8-16.2,8.2c-7.3-0.5-19.7-11.1-23.9-15.1l-0.2-0.2l-0.2-0.1
					c-3.9-2.1-8.6-2.3-11.8-0.5c-2.2,1.3-3.5,3.4-3.5,6c-0.1,3.2-2.1,4.7-3.2,5.2c-0.5-0.3-1.2-0.5-1.9-0.9c-2.9-1.3-7-3.2-11.4-7.5
					c-4.7-4.7-12.5-4.8-17.1-2.2c-2.6,1.5-3.7,3.7-3.2,5.9c0.5,2.2-1.7,6-3.7,8.4c-1.7-0.2-5.7-0.7-8.5-2.3
					c-1.9-1.1-3.9-3.5-6.3-6.4c-2.3-2.7-4.9-5.9-8.2-8.8c-7.5-6.5-14.9-3.5-15.2-3.4l1.5,3.6c0.1,0,5.4-2.3,11.1,2.7
					c3,2.7,5.6,5.7,7.8,8.4c2.6,3.2,4.9,5.9,7.4,7.3c4.5,2.5,10.9,2.8,11.1,2.8h0.9l0.7-0.7c0.3-0.4,2.3-2.6,3.7-5.3
					c2.5,1,7.6,3.4,10.1,7.6c1,1.7,2.7,3.3,4.8,4.7c-0.5,2.4-2.3,8.1-7.7,8.8c-4.7-1.3-13.6-1.7-16.9,6.1l3.6,1.5
					c2.8-6.6,12.1-3.8,12.5-3.7l0.3,0.1h0.4c6.9-0.7,10.1-6.3,11.3-10.7c7.2,3.4,16.7,4.9,22.4,3.5c2.5,0.7,15.4,4.1,21.3,14.1
					l3.3-2.1c-6.1-10-17.9-14.2-22.4-15.5c0.4-1.5,1.5-3.7,4-4.1c3.3-0.5,13,5.2,18.8,9.6l0.4,0.3h0.5c0,0,0.1,0,0.2,0
					c0.9,0,3.9-0.3,6.8-4.9c1.7-2.8,1.3-6,0.5-8.3c0.1,0,0.2,0,0.2,0C150.7,137.2,158.7,127.9,159.1,127.6z M136.7,143.4
					c-1.2,2.1-2.4,2.7-2.9,2.9c-3.7-2.6-15.6-10.8-21.2-9.8c-4.7,0.9-6.8,4.9-7.3,7.8c-7.8,1.5-22.5-3.2-25.7-8.5
					c-3.2-5.3-9-8.2-12.1-9.4c0.3-1.2,0.3-2.5,0-3.7c-0.1-0.4,0.4-1,1.3-1.5c2.9-1.6,8.8-2.1,12.4,1.5c4.9,4.9,9.5,7,12.5,8.3
					c1,0.4,1.7,0.8,2.4,1.1l0.8,0.4l0.9-0.2c0.2-0.1,6.3-2,6.5-9c0-1.3,0.5-2.2,1.6-2.8c1.9-1.1,5.1-0.9,7.7,0.4
					c1.7,1.6,13.3,12.3,22.5,15.2C136.7,137.6,138.1,141,136.7,143.4z"/>
			</g>
			<g>
				<g>
					<path class="st5" d="M127.9,81.4c3.4-5.9,5.2-12.9,4.8-20.3c-1.1-18.1-15.7-32.9-33.8-34.1c-21.2-1.4-39,15.4-39,36.3
						c0,6.5,1.7,12.7,4.8,18.1c5.4,9.6,10.9,19.2,15.7,29.1l6.9,14.1c3.7,7.6,14.6,7.6,18.3,0l8.2-17C118,98.6,122.9,90,127.9,81.4z
						"/>
					<path class="st3" d="M96.3,132.2L96.3,132.2c-4.7,0-8.8-2.6-10.9-6.9l-6.9-14.1C73.7,101,67.9,90.9,63,82.3
						c-3.3-5.8-5-12.3-5-19c0-10.6,4.5-20.8,12.2-28C78,28,88.3,24.3,99,25.1c19.2,1.3,34.4,16.8,35.5,35.9c0.4,7.5-1.3,14.9-5,21.3
						l0,0c-5.2,9.1-10,17.4-14.2,26l-8.2,17C105.1,129.5,101,132.2,96.3,132.2z M96.3,28.8c-8.7,0-17,3.3-23.4,9.3
						c-7,6.5-11,15.7-11,25.2c0,6,1.5,11.9,4.5,17.1c5,8.7,10.8,19,15.8,29.3l6.9,14.1c1.4,2.9,4.1,4.7,7.4,4.7s6-1.7,7.4-4.7
						l8.2-17c4.2-8.7,8.9-17.1,14.3-26.2c3.4-5.8,4.9-12.4,4.5-19.2c-1-17.2-14.7-31.1-31.9-32.3C98,28.9,97.1,28.8,96.3,28.8z"/>
				</g>
				<g>
					<ellipse class="st6" cx="96.3" cy="63.3" rx="20.3" ry="20.3"/>
					<path class="st3" d="M96.3,85.4c-12.2,0-22.1-9.9-22.1-22.1s9.9-22.1,22.1-22.1s22.1,9.8,22.1,22.1
						C118.4,75.5,108.5,85.4,96.3,85.4z M96.3,45C86.2,45,78,53.2,78,63.3s8.2,18.3,18.3,18.3c10,0,18.3-8.2,18.3-18.3
						S106.3,45,96.3,45z"/>
				</g>
			</g>
		</g>
		<g>
			<path class="st7" d="M111.1,35.4c-3.3-1.7-6.8-2.8-10.3-3.4c-1.2-0.2-2.3,0.7-2.4,2c-0.1,1.1,0.7,2.1,1.7,2.2
				c3.2,0.4,6.2,1.4,9,2.9c1,0.5,2.2,0.2,2.7-0.8l0,0C112.6,37.3,112.2,36,111.1,35.4z"/>
			<path class="st7" d="M93.3,34c-0.1-1.2-1.2-2.1-2.4-1.9c-14.3,2.5-25.1,14.4-26,28.9c-0.1,1.2,0.9,2.3,2.1,2.3l0,0
				c1.1,0,2-0.9,2.1-2c0.9-12.6,10.2-23,22.7-25.1C92.7,36.1,93.4,35.1,93.3,34L93.3,34z"/>
			<path class="st7" d="M110.5,98.6L110.5,98.6c-1-0.5-2.3-0.1-2.8,0.9c-0.4,0.8-0.8,1.5-1.2,2.3c-0.5,1-0.1,2.3,1,2.8l0,0
				c1,0.5,2.3,0.1,2.7-1c0.3-0.8,0.8-1.5,1.1-2.3C111.9,100.4,111.5,99.2,110.5,98.6z"/>
			<path class="st7" d="M125.6,61.5c-1.1,0.1-2,1-2,2c0,4.7-1.3,9.3-3.6,13.4c-2.2,3.7-4.6,8-6.9,12.2c-0.5,1-0.2,2.3,0.9,2.8l0,0
				c1,0.5,2.3,0.2,2.8-0.9c2.3-4.1,4.7-8.4,6.9-12.1c2.7-4.7,4.1-9.9,4.1-15.4C127.9,62.4,126.8,61.5,125.6,61.5z"/>
		</g>
	</g>
</g>
</svg>
